<svg width="729" height="175" viewBox="0 0 729 175" fill="none" xmlns="http://www.w3.org/2000/svg">
<path fill-rule="evenodd" clip-rule="evenodd" d="M228.9 147.6C229.5 147.6 230.1 147.6 230.9 147.6C229.7 146.5 227 146.6 226.1 147.6C225 148.7 224.9 148.6 224.1 147.2C223.9 147 223.5 147 223.2 146.8C223.1 146.7 223.4 146.3 223.4 146.2C220.8 145.8 218.1 145.3 215.5 145.2C213.9 145.1 212.4 145.8 211 147.1C210 147.9 208.3 147.8 206.9 148.1C206.3 148.3 205.7 148.3 205.1 148.4C205.1 148.6 205.133 148.8 205.2 149C205.9 148.9 206.6 148.8 207.3 148.8C207.9 148.8 208.5 148.8 209 148.9C209.2 149 209.3 149.8 209.2 149.9C208.8 150.1 208.3 150.4 207.8 150.4C205.7 150.7 203.6 150.9 201.5 151.2C201.5 151.4 201.5 151.633 201.5 151.9C211.1 152.7 220.8 153.5 230.6 154.4C230.6 154.2 230.6 154.033 230.6 153.9C230.7 153.3 234 150.2 234.6 150.3C236.6 150.6 238.5 150.9 240.6 149.9C242 149.3 243.8 149.8 245.5 150.1C244.3 150.2 243.2 150.3 241.9 150.4C242.8 152.2 243.9 151.7 245 151.6C245.8 151.6 246.5 151.7 247.3 151.8C248.8 151.9 250.3 152.2 251.8 152.4C254.1 152.6 256.4 152.9 258.7 152.8C259.8 152.7 260.7 152.8 261.4 153.9C260.9 154 260.4 154 259.9 154.2C257.2 154.8 254.6 155.3 251.7 154.3C249.4 153.4 246.7 154.1 244.1 154.3C247.3 154.7 250.5 155.1 253.7 155.5C253.7 155.7 253.7 155.933 253.7 156.2C251.633 156.4 249.567 156.567 247.5 156.7C247.5 156.9 247.5 157.1 247.5 157.3C247.9 157.5 248.333 157.7 248.8 157.9C248.8 158.033 248.8 158.167 248.8 158.3C247.8 158.5 246.7 158.9 245.6 158.9C244.5 158.9 243.3 158.6 242.2 158.5C242.2 158.7 242.167 158.9 242.1 159.1C245.633 159.367 249.167 159.6 252.7 159.8C252.7 160 252.7 160.167 252.7 160.3C249.9 161.7 247 160.8 244.1 160.9C243.9 161.3 243.8 161.7 243.7 162.3C247.8 162.8 252.1 163.3 256.5 163.8C256.3 164.3 256.2 164.6 256 165C258.2 165.7 260.2 165.3 262.1 164.8C262.1 164.533 262.1 164.3 262.1 164.1C260.4 163.9 258.7 163.7 256.7 163.5C257.6 162.2 258 161.5 259.4 162.3C259.9 162.7 261 162.1 262 162C262.7 162.2 263.5 162.8 264.4 162.8C268.4 163.1 272.3 163.1 276.2 163.4C279.6 163.6 282.9 164.1 286.3 164.4C287.3 164.5 288.5 163.6 289.1 165.7C286.2 165.4 283.3 165.1 280.5 164.9C278.167 164.7 275.8 164.533 273.4 164.4C272 164.4 270.6 164.5 269.2 164.6C268.7 164.7 268.3 165 267.8 165.1C267.5 165.1 266.8 165.2 266.7 165C265.8 162.9 264.3 164.5 263.1 164C263.5 166.6 265.3 166.1 266.6 166.3C268.5 166.7 270.3 166.9 272.1 167.4C263.3 166.3 254.3 167.1 245.7 164.4C245.633 164.6 245.567 164.767 245.5 164.9C245.767 165.233 246 165.533 246.2 165.8C246.133 165.933 246.067 166.033 246 166.1C245.4 165.6 244.7 165.1 244 164.7C243.5 164.3 242.5 163.7 242.2 163.9C240.4 165.4 238.3 164.7 236.3 164.9C234.3 165.233 232.3 165.433 230.3 165.5C228.3 165.6 226.2 165.6 224.1 165.7C223.7 165.7 223.3 165.8 222.9 165.9C222.9 166.1 222.9 166.267 222.9 166.4C224.633 166.8 226.4 167.2 228.2 167.6C228.2 167.667 228.2 167.733 228.2 167.8C226.6 168 225 168.2 223.3 168.2C221.3 168.2 219.2 168.2 217.3 167.8C215.9 167.5 214.7 166.1 213.5 166.2C212.2 166.4 211 167 209.6 166.7C208 166.4 206.2 166 204.7 166.5C202.3 167.4 199.8 167.1 197.4 167.1C195.1 167.2 192.8 166.9 190.5 166.8C189.2 166.8 187.8 167.1 186.5 167.1C186 167.2 185.3 167.3 184.9 167.1C182 165.8 179 166.4 176 166.4C174.6 166.4 173.2 166.7 171.8 166.7C171.5 166.7 171.1 166 170.7 166.1C169.7 166.2 168.7 166.5 167.7 166.8C167 166.9 166.3 167.2 165.6 167.1C163.9 166.9 162.1 166.5 160.1 166.1C160.3 166.9 160.4 167.3 160.6 167.9C157.3 167.3 154.2 166.8 151 166.2C151.1 166.6 151.2 167 151.4 167.6C150.9 167.6 150.5 167.7 150 167.7C146.8 167.6 143.5 167.5 140.2 167.4C138.7 167.3 137.1 166.9 135.5 166.8C134.9 166.8 134.1 167.4 133.5 167.8C133.4 168 133.5 169 133.6 169C134.8 169.533 136.033 169.967 137.3 170.3C138.4 170.6 139.5 170.1 140.2 171.8C140.5 172.4 142.5 172.4 143.7 172.3C145.9 172 148.1 171.5 150.3 171C150.5 171 150.8 170.9 151.4 170.6C149.7 170.1 148.4 169.6 147 169.2C147.067 169.067 147.1 168.933 147.1 168.8C148.9 168.9 150.7 169 152.7 169.1C152.1 170.7 152.5 171.2 153.8 171.3C154.7 171.3 155.5 171.8 156.4 172C157 172.2 157.8 173.2 158.3 171.8C158.4 171.7 159.1 171.7 159.1 171.7C159.5 173.2 160.6 172.7 161.4 172.7C163.8 172.9 166.2 173.1 168.7 173C170.7 173 172.6 172.6 174.6 172.4C174.667 172.6 174.7 172.8 174.7 173C172.1 173.2 169.5 173.6 166.9 173.7C162.2 174 157.4 174.3 152.7 174.4C149.3 174.4 146 174 142.6 173.7C137 173.1 131.3 172.4 125.6 171.8C123.1 171.5 120.5 171.1 117.9 170.7C112.6 170.1 107.2 169.5 101.9 168.6C103.7 168.6 105.5 168.5 107.3 168.6C111.7 168.8 116 169.1 120.4 169.3C120.467 169.1 120.533 168.867 120.6 168.6C120 168.4 119.5 168.2 119 168.1C112.7 167.4 106.4 166.8 100.2 166C97.4 165.6 94.8 164.9 92.1 164.2C90.8 163.8 89.6 163 88.3 162.5C87.8 162.3 87.2 162.5 86.5 162.5C86.8 163 87 163.2 87.2 163.6C84.3 163.4 81.5 163.2 78.4 163C78.9 162.5 79.1 162.2 79.5 161.9C77.8 160.5 75.8 160.6 73.9 160.7C70.4 160.9 66.8 161.3 63.3 161.7C63.1 161.7 62.9 161.6 62.3 161.4C63.2 161 63.7 160.9 64.2 160.7C64 159.1 63.2 159.3 62.2 159.6C61.3 159.9 60.4 160 59.5 160.1C56.9667 160.367 54.4333 160.633 51.9 160.9C53.6333 160.5 55.3667 160.1 57.1 159.7C58.1 159.5 59 159.3 59.9 158.9C57.5 158.7 55.1 157.3 52.9 159C48.5 156.7 43.7 157.7 39.2 156.9C39.1333 157.167 39.1 157.4 39.1 157.6C40.5667 157.933 42 158.233 43.4 158.5C43.2 158.6 43 158.8 42.7 158.8C38.5667 158.467 34.4667 158.133 30.4 157.8C29 157.7 28.7 156.7 28.7 155.8C26.3 153.7 24.1 151.8 21.8 149.8C23.4 147.8 25.3 149.8 26.9 149.3C26.7 147.6 25.9 146.8 24.3 146.8C23.8 146.8 23.3 146.2 22.6 145.8C23.2 144.7 23.8 143.9 24.1 142.9C24.2 142.6 23.6 141.8 23.1 141.6C22.1 141 21 140.6 19.9 140.2C19.8333 140 19.8 139.767 19.8 139.5C20.6 139.1 21.5 138.8 22.3 138.3C22.9 138 23.4 137.5 24.1 136.9C22.3 136.1 20.7 135.4 19.1 134.7C19.1 134.433 19.1 134.2 19.1 134C20.3 133.667 21.5333 133.333 22.8 133C17.5 131.4 12.8 127.9 7.19999 127.1C7.26665 126.833 7.36665 126.567 7.49999 126.3C9.89999 126.9 12.3 127.6 14.8 128.1C17 128.5 19.2 128.8 21.4 129.1C21.8 129.1 22.3 128.4 22.8 128.2C23.2 127.9 23.6 127.7 24 127.7C24.9 127.7 25.8 127.8 26.5 127.8C26.9 127 27.2 126.5 27.7 125.6C25.6 125 23.5 124.5 21 123.8C23.3 123.2 25.1 122.7 27.3 122.2C26.7 121.7 26.2 121.3 25.5 120.7C28 120.7 30.1 120.7 32.2 120.7C32.2 120.567 32.2333 120.467 32.3 120.4C31.5 120.1 30.7 119.8 30 119.5C30.2 119.3 30.5 119 30.8 118.7C30.5 118.5 30.3 118 30 117.9C28.8 117.7 27.6 117.6 26.4 117.4C25.8 117.3 25.2 117.2 24.6 116.6C25.8 116.467 27.0333 116.3 28.3 116.1C28.3 115.833 28.3 115.567 28.3 115.3C26.4 115.2 24.6 115 22.6 114.9C22.7 114.4 22.8 114.1 23 113.5C21.1 113.2 19.4 113 17.6 112.8C17.6 112.733 17.6 112.667 17.6 112.6C18.9333 112.333 20.2333 112.067 21.5 111.8C21.5 111.733 21.5 111.633 21.5 111.5C20.2333 111.033 18.9667 110.6 17.7 110.2C17.7667 110 17.8 109.833 17.8 109.7C19.6 109.967 21.4 110.267 23.2 110.6C23.2 110.4 23.2333 110.2 23.3 110C21.9 109.5 20.3 109.4 19.3 108.5C18.3 107.7 18 106 17.3 104.6C18.9 105 20.5 105.4 22.1 105.8C22.1 105.6 22.1333 105.433 22.2 105.3C21.3 104.9 20.4 104.5 19.6 104C19.3 103.8 19.2 103.3 19 102.9C19.3 102.7 19.7 102.5 20 102.5C21.3 102.6 22.7 102.7 24.2 102.9C24.2 102.4 24.1 102 24 101.2C25.5 101.4 26.9 101.6 28.3 101.8C28.3 101.667 28.3 101.533 28.3 101.4C25.7667 100.733 23.2333 100.067 20.7 99.4001C20.7 99.2668 20.7 99.1335 20.7 99.0001C22.1 98.7001 23.6 98.3001 25.2 97.9001C24.9 98.3001 24.7 98.5001 24.4 98.9001C25.3 99.1001 26 99.2001 26.9 99.4001C26.6 97.2001 27.7 97.4001 29 97.7001C29.7 97.8001 30.4 97.7001 31.1 97.4001C30.4 97.0001 29.5 96.7001 28.9 96.2001C28.3 95.8001 27.8 95.1001 27.1 94.2001C24.6 93.5001 21.6 92.6001 18.6 91.7001C18.6667 91.5001 18.7333 91.2668 18.8 91.0001C22.5333 91.6001 26.3 92.1668 30.1 92.7001C30.1 92.5668 30.1333 92.4335 30.2 92.3001C25.8 90.9668 21.4333 89.6335 17.1 88.3001C17.1 88.2335 17.1 88.1668 17.1 88.1001C20.2333 88.5668 23.3333 89.0335 26.4 89.5001C26.4667 89.3668 26.5 89.2001 26.5 89.0001C20.9 87.5335 15.3333 86.0668 9.79999 84.6001C9.79999 84.4001 9.79999 84.2335 9.79999 84.1001C12.7 84.6001 15.5 84.9001 18.3 85.5001C22.9 86.6001 27.6 87.7001 32.3 87.9001C33.5 87.9001 34.7 87.8001 35.9 87.8001C37.6 87.7001 39.3 87.8001 41 87.4001C27.4 84.3001 13.8 81.1001 -0.200012 77.9001C2.79999 76.3001 5.49999 77.9001 8.49999 77.8001C7.89999 78.0001 7.59999 78.1001 7.19999 78.2001C13 80.5001 19.2 79.3001 25.4 81.4001C24.3 80.1001 24.3 80.2001 22.1 79.9001C21 79.8001 19.9 79.3001 18.9 78.6001C20.4333 78.7335 22 78.8335 23.6 78.9001C23.6 78.7668 23.6333 78.6335 23.7 78.5001C22.1 78.0001 20.5 77.4001 18.8 76.8001C19.3 76.6001 19.8 76.5001 20.3 76.3001C19 75.1001 17.6 74.9001 16.2 75.2001C14.8 75.6001 13.3 75.5001 11.9 75.6001C11.9 75.3335 11.8667 75.1001 11.8 74.9001C13 74.6001 14.3 74.2001 15.5 74.3001C17.9 74.4001 20.3 74.8001 22.8 75.1001C24.8 75.3001 26.9 75.4001 29 75.5001C29.4 75.5001 29.7 75.2001 30.5 74.8001C28.9 74.4001 27.7 74.1001 26.2 73.7001C27.5 72.5001 29.3 74.4001 29.9 72.4001C30.8 71.9001 31.6 71.4001 32.7 70.8001C30.7 69.2001 28.1 70.3001 25.7 68.7001C30 69.2001 33.8 69.6001 37.7 70.0001C37.7 69.8668 37.7333 69.7335 37.8 69.6001C36.5 69.1001 35.2 68.4001 33.8 68.2001C31.8 67.9001 29.8 67.9001 27.8 67.7001C27.3 67.6001 26.9 66.8001 26.2 66.0001C30.2 66.0001 33.7 66.8001 37.2 65.5001C34.2 64.6001 31.6 62.2001 28.2 63.6001C28 63.0001 27.8 62.3668 27.6 61.7001C32.7333 61.7001 37.9 61.7001 43.1 61.7001C43.1 61.5001 43.1 61.3001 43.1 61.1001C41.6 60.9001 40.1 60.9001 38.7 60.7001C37.2 60.4001 35.8 60.1001 34.4 59.8001C34.9 59.6001 35.5 59.5001 36.2 59.2001C35.9 58.9001 35.7 58.6001 35.3 58.1001C38 57.7001 40.5 57.3001 43.1 57.0001C40.7 55.1001 37.8 55.7001 35.2 55.3001C32.5 54.8001 29.8 54.7001 27.1 54.3001C33.2 52.6001 39.7 54.1001 45.7 52.1001C45.7667 51.9668 45.8 51.8335 45.8 51.7001C43.2 51.1001 40.6667 50.5001 38.2 49.9001C38.2 49.9001 38.3333 49.7335 38.6 49.4001C37.7 49.2001 37 49.1001 35.9 48.9001C36.9 48.6001 37.6 48.3001 38.3 48.1001C38.3 48.0335 38.3 47.9668 38.3 47.9001C36.2333 47.7001 34.1333 47.5335 32 47.4001C32 47.2001 32 47.0335 32 46.9001C34.9333 46.7001 37.8333 46.5002 40.7 46.3002C40.7 46.1002 40.7 45.9335 40.7 45.8002C40.2 45.5002 39.7 45.2002 38.7 44.6002C40.6 44.5002 42 44.3001 43.4 44.2001C43.4 44.0668 43.4 43.9001 43.4 43.7001C39.8 43.0335 36.1667 42.3335 32.5 41.6002C32.5667 41.4002 32.6 41.2335 32.6 41.1002C33.4667 40.9668 34.3333 40.8668 35.2 40.8002C35.2 40.5335 35.2 40.3002 35.2 40.1002C33.1333 39.7668 31.0667 39.4335 29 39.1002C30.7 37.8002 32.9 39.6002 34.3 37.5002C34.4 37.4002 34.2 37.0001 34.1 36.7001C36.8333 36.9001 39.5667 37.1335 42.3 37.4001C43.3667 37.4668 44.4333 37.5002 45.5 37.5002C46.4 37.4002 47.1 37.2002 46.8 36.1002C44.3 35.6002 42 35.2001 39.6 34.7001C43.8 33.7001 48.2 36.3002 52 32.8002C41 32.1335 30 31.4668 19 30.8002C19 30.5335 19 30.3002 19 30.1002C23.3 30.1002 27.5 31.0001 31.8 29.7001C26.4 28.0001 20.8 27.8002 15 26.3002C29 24.4002 42.6 24.5002 56.2 25.6002C56.2 25.7335 56.2333 25.9002 56.3 26.1002C53.7667 26.1002 51.2667 26.1002 48.8 26.1002C48.8 26.3668 48.8 26.6002 48.8 26.8002C50.7333 27.0002 52.7 27.1668 54.7 27.3002C54.7 27.5002 54.7 27.7335 54.7 28.0002C51.8 28.1002 48.9 28.3002 45.5 28.5002C46.2 28.9002 46.5 29.1002 46.8 29.1002C49.8 29.3002 52.7 29.4002 55.7 29.6002C57.2 29.7002 58.8 30.0002 60.4 30.3002C62.4 30.6002 63.3 30.1002 63.3 28.5002C62.3 28.1002 60.7 28.5002 61 26.3002C61 26.2002 59.5 25.9002 58.7 25.6002C59.7 24.4002 61.8 26.2002 62.5 23.8002C61.9 23.7002 61.4 23.7001 60.9 23.7001C60.9 23.5668 60.8667 23.4668 60.8 23.4001C61.9 22.9001 62.9 22.4001 64.1 21.9001C63.6 21.4001 63.1 21.0001 62.3 20.4001C63.5 19.9001 64.3 19.5002 65.1 19.3002C69.6 18.5002 74.1 17.6002 78.6 16.8002C83.1333 16.1335 87.7 15.5668 92.3 15.1002C93.3 15.0002 94.5 15.7002 95.6 16.1002C96.2 16.3002 96.9 16.5002 97.5 16.6002C101.8 17.0002 106.1 17.0001 110.3 17.9001C113.6 18.7001 116.8 18.3001 120 18.2001C122.2 18.1001 124.4 18.7002 126.7 18.8002C128.1 19.0002 129.6 18.9001 131.1 18.9001C132.1 18.8001 133.1 18.5001 133.8 18.4001C132.8 17.4001 131.6 16.2002 130.4 15.1002C129.5 14.3002 128.5 13.5001 127.7 12.9001C127.7 12.9001 128.2 12.8001 128.7 12.7001C128.9 10.7001 128 10.1002 126.4 10.1002C119.5 10.0002 112.7 9.70016 105.8 9.80016C103.1 9.90016 100.3 11.0002 97.6 11.6002C97.1 11.7002 96.6 11.9001 96 11.9001C98.1 10.2001 100.6 9.60015 103.1 9.50015C108.5 9.20015 113.9 9.10015 119.3 8.90015C124.1 8.70015 128.9 8.40016 133.8 8.30016C140.7 8.20016 147.5 8.30016 154.4 8.30016C157.5 8.30016 160.6 8.20016 163.7 8.30016C166.7 8.30016 169.7 8.60015 172.7 8.50015C179 8.50015 185.4 8.40016 191.7 8.30016C193.3 8.30016 194.9 8.50015 196.6 8.70015C196.533 8.83348 196.5 8.96683 196.5 9.10016C195.3 9.10016 194.2 8.90015 193 9.00015C187.533 9.06682 182.1 9.20015 176.7 9.40015C170.1 9.70015 163.5 9.90015 156.9 10.2001C153.3 10.4001 149.6 10.7002 145.6 11.0002C148 11.7002 150.3 12.2001 153 12.9001C152.1 13.4001 151.7 13.7002 151.3 13.8002C149.3 13.9002 147.4 14.0002 145.4 14.1002C145.067 14.1002 144.7 13.9002 144.3 13.5002C145.033 13.4335 145.767 13.3335 146.5 13.2001C146.5 13.0668 146.5 12.9335 146.5 12.8002C143.7 12.8002 140.9 12.8002 138.1 12.8002C138.033 12.5335 138 12.3002 138 12.1002C139.933 11.9002 141.867 11.7335 143.8 11.6002C143.733 11.4668 143.7 11.3668 143.7 11.3002C139.633 10.9002 135.567 10.5002 131.5 10.1002C131.2 12.3002 131.8 13.0002 133.6 13.0002C136.4 13.1002 139.1 13.4002 141.8 13.6002C141.8 13.8002 141.8 14.0001 141.8 14.2001C138.7 14.0001 135.6 13.9001 132.4 13.7001C132.6 16.0001 134 16.0001 135.1 16.2001C136.5 16.5001 137.9 16.4002 139.2 16.6002C140.2 16.8002 141.1 17.5002 142.1 17.6002C143.4 17.7002 144.8 17.5001 146.1 17.4001C147.7 17.4001 149.2 17.4002 150.8 17.3002C151.8 17.3002 152.9 17.1001 153.9 16.9001C155.2 16.7001 156.5 16.3001 157.8 16.2001C158.3 16.2001 158.8 16.6001 159.5 16.9001C158.7 17.7001 158.2 18.1001 157.3 18.9001C160.5 18.3001 163.1 20.7002 165.9 19.0002C166.9 18.5002 168.3 19.1002 169.5 19.1002C174.6 19.1002 179.6 19.1001 184.6 18.9001C188.6 18.8001 192.6 18.4002 196.6 18.1002C197.6 18.0002 198.8 18.0002 199.2 16.5002C199.3 16.3002 199.8 16.3001 200.1 16.2001C200.4 19.0001 203.2 17.4002 204 18.8002C202.1 18.9002 200.2 19.1001 198.3 19.2001C198.3 19.4668 198.3 19.7001 198.3 19.9001C205.033 19.9668 211.767 20.0335 218.5 20.1002C218.433 20.1002 218.367 20.0668 218.3 20.0002C219.1 19.7002 219.6 19.5001 220.4 19.2001C220.8 22.1001 222.9 20.6002 224.3 21.0002C225.6 21.4002 227 21.6001 228.4 22.2001C229.1 22.1001 230 20.9001 230.6 22.7001C232.1 22.1001 233.4 25.0001 235.1 22.9001C235.3 22.6001 236.3 22.9002 236.9 23.0002C238.7 23.3002 240.5 23.8001 242.3 23.9001C246.367 24.1668 250.433 24.2668 254.5 24.2001C256 24.2001 257.4 23.6002 258.8 23.6002C260.5 23.6002 262.1 23.9002 263.8 24.1002C264.9 24.2002 265.5 24.0002 264.7 22.6002C264.833 22.5335 265 22.5002 265.2 22.5002C265.6 23.1002 266 23.7002 266.6 24.6002C267.2 24.4002 268.1 24.0002 269 23.8002C269.4 23.7002 269.9 23.8002 270.1 24.1002C271.8 25.9002 275.9 26.0001 277.6 24.4001C278.1 24.0001 278.7 23.9001 279.3 23.9001C279.033 24.1668 278.733 24.4668 278.4 24.8002C278.5 25.0002 278.6 25.3002 278.7 25.3002C281.1 25.3668 283.467 25.4001 285.8 25.4001C286.533 25.4001 287.267 25.3668 288 25.3002C289.4 25.3002 290.8 25.2002 292.2 25.0002C294 24.7002 295.6 24.6002 297.1 26.0002C298.1 24.0002 299.7 25.0001 301 24.9001C301.067 25.1001 301.1 25.3002 301.1 25.5002C299.2 25.9002 297.3 26.8002 295.4 26.6002C293.1 26.3002 290.8 26.2001 288.4 26.4001C285.9 26.7001 283.3 26.3001 280.7 26.4001C278.233 26.4668 275.8 26.6668 273.4 27.0002C271.3 27.2002 269.3 27.7002 267.3 28.0002C266.8 28.0002 266.2 27.5002 265.7 27.5002C263.4 27.5002 261.1 27.7001 258.8 27.7001C258.8 27.9001 258.8 28.1002 258.8 28.3002C259 28.5668 259.233 28.8002 259.5 29.0002C258.567 29.1335 257.667 29.2335 256.8 29.3002C256.733 29.4335 256.7 29.5668 256.7 29.7001C257 29.9001 257.5 30.3001 257.7 30.2001C259.3 29.4001 260.7 30.5001 262.1 30.7001C262.5 30.8001 263 30.4002 263.4 29.8002C262.867 29.6668 262.3 29.5335 261.7 29.4001C261.767 29.1335 261.8 28.9001 261.8 28.7001C262.5 28.9001 263.3 28.9001 263.9 29.2001C264.8 29.7001 265.6 30.0001 265.9 28.2001C266.033 28.2668 266.2 28.3002 266.4 28.3002C266.733 29.2335 267.067 30.1335 267.4 31.0002C267.267 31.0668 267.133 31.1668 267 31.3002C267.867 31.4335 268.767 31.5668 269.7 31.7001C269.633 31.9001 269.6 32.1002 269.6 32.3002C268.5 32.2002 267.4 32.2002 266.3 32.0002C266.2 32.0002 266.2 30.8001 266.2 29.9001C265.8 30.1001 265.4 30.2002 265.2 30.5002C264.3 32.3002 262.7 32.2002 261.2 32.3002C258.2 32.7002 255.3 34.0002 252.2 33.5002C250.8 33.2002 249.5 32.9002 248.1 32.8002C247.6 32.7002 247 32.8001 246.5 32.9001C245.6 33.1001 244.7 33.3002 243.7 33.5002C244.2 35.5002 242.8 35.5002 241.6 35.5002C240.8 35.5002 240 35.5002 239.2 35.5002C239.133 35.6335 239.1 35.7668 239.1 35.9001C239.4 36.0001 239.7 36.2001 239.9 36.2001C243.3 36.1001 246.8 35.9002 250.2 35.8002C253.2 35.7002 256.2 35.8002 259.2 35.6002C260.1 35.6002 261.1 35.1002 262 35.1002C264.3 35.1002 266.5 35.4002 268.7 35.5002C271.4 35.6002 274.2 35.4002 276.9 35.5002C278.2 35.6002 279.5 36.2001 280.8 36.2001C284.3 36.1001 287.7 37.0001 291.2 37.7001C292 37.8001 292.9 37.8002 293.8 37.8002C294 37.8002 294.3 37.8001 294.5 37.9001C296.7 39.7001 299.1 39.4002 301.6 39.1002C302.9 39.0002 304.1 39.3002 305.3 39.3002C305.6 39.4002 306 39.3002 306.3 38.8002C305.8 38.8002 305.2 38.9002 304.7 38.8002C304.3 38.7002 303.9 38.5002 303.5 38.3002C303.4 38.3002 303.5 37.6002 303.6 37.6002C304.1 37.4002 304.9 37.1001 305.1 37.4001C306.5 39.3001 307.7 37.8002 309 37.3002C310.2 36.8002 311.6 37.0002 313 37.3002C312.067 37.3668 311.167 37.4335 310.3 37.5002C310.3 37.7002 310.3 37.8668 310.3 38.0002C310.633 38.2002 311 38.4002 311.4 38.6002C311.2 38.8002 311 38.9001 310.5 39.4001C313.4 39.4001 316 39.4001 318.4 39.4001C318.4 40.1001 318.4 40.7002 318.4 41.6002C318.3 41.6002 318 41.8002 317.6 42.0002C318.8 43.7002 320.3 43.8001 322 43.7001C323.5 43.7001 325.1 43.9001 326.6 43.7001C328.1 43.5001 329.6 42.8002 331.1 42.3002C331.6 42.2002 332.2 42.3001 332.8 42.2001C332.867 42.4668 332.933 42.7001 333 42.9001C332.267 43.1668 331.533 43.4668 330.8 43.8002C331.6 43.8002 332.5 43.9002 333.4 43.8002C333.9 43.7002 334.4 43.1001 335 42.9001C335.8 42.6001 336.3 41.2002 337.5 42.1002C337.7 42.3002 338.2 42.0001 338.8 41.4001C338.333 41.2001 337.833 41.0002 337.3 40.8002C339.7 38.5002 342 40.3001 344.1 40.2001C344.1 40.0668 344.133 39.9001 344.2 39.7001C342.867 39.3668 341.567 39.0335 340.3 38.7001C340.5 38.2001 340.7 37.7001 340.8 37.4001C343.2 38.1001 345.5 38.7001 347.9 39.4001C347.4 39.8001 347.1 40.0002 346.7 40.3002C346 41.1002 345.3 41.4001 344.2 41.2001C342.6 40.9001 341.1 40.9002 339.5 40.8002C339.2 43.8002 339.2 43.7002 341.6 43.8002C343 43.8002 344.4 44.1002 345.8 44.1002C346.4 44.1002 346.9 43.5002 347.5 43.3002C347.8 43.2002 348.1 43.0002 348.3 43.1002C350.2 43.8002 351.9 43.4001 353.7 42.7001C354.5 42.4001 355.5 42.9001 356.3 42.9001C358.8 42.8001 361.3 42.2001 363.6 42.7001C365.7 43.1001 367.6 42.6001 369.6 42.4001C370 42.4001 370.3 42.3001 370.7 42.2001C370.7 42.0001 370.7 41.8335 370.7 41.7001C369 41.6001 367.3 41.4001 365.6 41.4001C362.1 41.5001 358.6 41.8002 355.1 41.6002C353.6 41.4002 352.2 40.7002 350.6 41.3002C349.8 41.6002 348.9 41.8002 348 42.0002C347.867 41.7335 347.733 41.5002 347.6 41.3002C348.3 40.9002 348.8 40.3002 349.5 40.1002C351.4 39.6002 353.5 38.5002 355.2 39.0002C358.4 40.0002 361.4 39.4001 364.5 39.4001C365.3 39.4001 366.1 38.9002 366.9 38.6002C366.833 38.4002 366.767 38.2335 366.7 38.1002C364.833 38.1002 362.967 38.1002 361.1 38.1002C361.1 37.9002 361.1 37.7002 361.1 37.5002C363.5 37.5002 365.9 37.5002 368.5 37.5002C368.2 38.2002 368.1 38.6002 367.7 39.5002C369.1 39.3002 370.2 39.2002 370.7 39.1002C373.5 39.1002 375.8 39.1002 378.1 39.1002C380.7 39.0335 383.3 38.9335 385.9 38.8002C390.4 38.5002 394.9 38.5001 399.3 37.9001C401.9 37.6001 404.3 38.9001 406.7 38.2001C408.4 37.8001 410.4 38.7001 411.8 36.9001C411.9 36.8001 412.4 36.8001 412.6 36.9001C414.3 38.0001 414.3 38.0002 416.3 37.0002C416.6 36.9002 417 36.8001 417.4 36.7001C416.2 35.2001 416.2 35.2002 414.5 36.0002C414.1 36.2002 413.6 36.1002 413.2 36.1002C411.3 36.0002 409.3 35.7002 407.4 35.8002C406.4 35.8002 405.5 36.4001 404.5 36.7001C403.9 36.9001 403.2 36.9001 402.5 36.7001C402.833 36.5668 403.167 36.4335 403.5 36.3002C403.5 36.1668 403.5 36.0002 403.5 35.8002C400.2 35.8002 396.9 35.8002 393.3 35.8002C393.6 35.3002 393.8 34.9001 394.3 34.2001C392.9 34.1001 391.8 34.1002 390.6 34.0002C390.6 34.2002 390.6 34.4002 390.6 34.6002C391.2 34.5335 391.833 34.4668 392.5 34.4001C392.5 34.6001 392.5 34.7668 392.5 34.9001C389.2 36.0001 385.9 36.1001 382.4 34.7001C382.5 34.4001 382.7 34.1002 383 33.6002C381.5 33.0002 380.1 32.5002 378.7 32.0002C378.7 31.8668 378.7 31.7335 378.7 31.6002C380.7 32.0002 382.7 32.3668 384.7 32.7001C386.3 32.9001 387.9 33.1335 389.5 33.4001C389.567 33.2001 389.633 33.0002 389.7 32.8002C389.5 32.5002 389.3 32.2001 388.9 31.7001C390.4 31.4001 391.8 30.9001 393.2 30.9001C394 30.8001 394.6 31.8002 395.9 31.5002C398.4 30.9002 401.1 30.4002 403.7 30.6002C405.4 30.7002 407.1 31.4002 408.9 30.8002C409.7 30.5002 410.5 30.3002 411.3 30.1002C411.3 29.9002 411.267 29.7335 411.2 29.6002C404.2 29.0002 397.2 28.5001 390 27.9001C391.9 26.2001 397 26.0001 400 27.2001C400 26.7001 399.9 26.1002 399.8 25.5002C402.8 27.2002 404.5 27.3001 406.4 25.7001C402.4 24.2001 398.4 25.4002 394.6 24.5002C394.667 24.3002 394.7 24.1335 394.7 24.0002C396.2 24.1002 397.8 24.2002 399.3 24.3002C401.9 24.5002 404.4 24.6002 407 24.8002C407.2 24.8002 407.4 25.4002 407.7 25.6002C408.2 25.9002 408.7 26.3002 409.3 26.3002C411.5 26.2002 413.8 26.0002 416 25.6002C414.933 25.6002 413.833 25.6002 412.7 25.6002C412.7 25.4002 412.7 25.2002 412.7 25.0002C417.5 25.0002 422.2 25.0002 427.1 25.0002C426.7 26.6002 426 26.5001 425 26.2001C424.2 26.0001 423.4 26.0001 422.4 25.9001C423.2 27.6001 424 27.9001 425.4 27.4001C425.8 27.2001 426.3 27.4001 426.8 27.4001C428.6 27.4001 430.5 27.3001 432.3 27.4001C433.3 27.4001 434.2 27.6002 435.1 27.8002C435.1 28.0002 435.1 28.2001 435.1 28.4001C432.833 28.6001 430.567 28.8002 428.3 29.0002C428.3 29.1335 428.3 29.2668 428.3 29.4001C431.633 29.4001 434.933 29.4001 438.2 29.4001C438.2 29.6001 438.2 29.8002 438.2 30.0002C436.267 30.2668 434.3 30.5335 432.3 30.8002C432.367 31.0002 432.4 31.2335 432.4 31.5002C435 31.3002 437.6 31.1001 440.6 30.9001C440.1 30.3001 439.9 30.1002 439.5 29.6002C442.3 29.1002 444.7 28.7001 447.2 28.2001C447.133 28.0001 447.1 27.8335 447.1 27.7001C445.8 27.3001 444.6 26.4002 443.1 27.3002C442.3 27.9002 441.5 28.2001 440.5 27.4001C439.9 26.9001 438.9 27.0001 438.1 26.9001C436 26.7001 434 26.5002 431.9 26.3002C431.9 26.1002 431.9 25.9335 431.9 25.8002C433.6 25.9002 435.3 26.1002 437.1 26.1002C440 26.0002 442.9 25.8001 445.8 25.7001C446.5 25.7001 447.2 26.3002 447.9 26.3002C450.6 26.5002 453.3 26.7002 456.1 26.8002C461.6 27.1002 467 27.4002 472.5 27.6002C478 27.8002 483.5 27.7002 489 27.8002C491 27.8002 493 28.1001 495 27.9001C496.4 27.8001 497.7 27.0001 499.3 26.4001C501 28.2001 503.6 27.5002 506.1 27.3002C508.6 27.2002 511 27.3001 513.5 27.2001C516.9 27.2001 520.2 27.1001 523.6 26.7001C521.3 26.0001 518.7 27.2002 516.4 25.1002C518.3 25.0002 519.8 24.4001 521.7 24.7001C525 25.2001 528.5 24.8002 531.9 24.6002C534.5 24.5002 537.1 23.6001 539.7 24.7001C540.5 25.0001 541.6 24.4002 542.5 24.3002C542.5 24.1002 542.5 23.9001 542.5 23.7001C541.967 23.4335 541.4 23.2002 540.8 23.0002C540.8 22.8668 540.8 22.7668 540.8 22.7001C541.933 22.6335 543.067 22.5668 544.2 22.5002C544.2 22.3002 544.2 22.1001 544.2 21.9001C540.3 21.8001 536.5 20.7002 532.5 21.8002C533.1 21.3335 533.667 20.8668 534.2 20.4001C534.2 20.2668 534.2 20.1335 534.2 20.0002C532.6 20.0002 531.1 20.0001 529.5 19.9001C525.2 19.8001 520.9 19.5002 516.6 19.5002C510.5 19.5002 504.4 19.6001 498.3 19.7001C496.5 21.4001 494.5 20.7001 492.2 19.7001C492.5 20.7001 492.6 21.1002 492.8 21.6002C492.6 21.7002 492.4 21.8002 492.3 21.8002C489.9 21.7002 487.5 21.8001 485.2 21.4001C482.7 20.9001 480.3 21.4001 477.8 21.7001C475.9 21.8001 474 21.3002 472.1 21.1002C472.1 20.9002 472.067 20.7002 472 20.5002C473.733 20.3668 475.433 20.2335 477.1 20.1002C477.1 19.9668 477.1 19.8335 477.1 19.7001C474.167 19.3668 471.2 19.0335 468.2 18.7001C468.133 18.5668 468.1 18.4335 468.1 18.3002C468.9 18.1002 469.6 17.8001 470.4 17.7001C475 17.7001 479.7 17.8002 484.3 17.8002C490.1 17.8002 495.9 17.8002 501.7 17.8002C502.3 17.8002 503.2 18.1002 503.2 16.8002C503.2 16.6002 504.2 16.3002 504.7 16.3002C505.8 16.3002 507 16.5002 508.1 16.6002C511.7 16.7002 515.4 17.0002 519 17.0002C520.3 16.9002 521.6 16.3001 522.9 15.9001C523.2 15.8001 523.6 15.7002 523.8 15.8002C525.8 17.1002 528 16.4001 530 16.7001C531.8 17.1001 533.1 16.0002 534.7 15.8002C537.1 15.6002 539.6 15.3002 542.1 15.3002C549.8 15.4002 557.6 15.7001 565.4 15.9001C567.267 15.9668 569.167 15.9001 571.1 15.7001C578.5 15.2001 585.9 15.5002 593.3 16.5002C600.3 17.4002 607.4 18.3001 614.5 17.4001C617.6 17.0001 620.8 17.5001 624 17.4001C627.9 17.3001 631.8 17.1001 635.7 16.9001C638.4 16.7001 641.2 16.6001 644 16.4001C645 16.3001 645.9 16.0001 646.9 15.7001C646.9 15.5001 646.9 15.3002 646.9 15.1002C644.1 14.7668 641.267 14.4335 638.4 14.1002C638.4 13.9002 638.433 13.7002 638.5 13.5002C645.9 13.5002 653.3 14.9001 660.8 15.2001C660.8 14.9335 660.833 14.7002 660.9 14.5002C657.1 13.7002 653.3 12.9335 649.5 12.2001C649.5 12.0001 649.5 11.8335 649.5 11.7001C653.833 12.0335 658.167 12.3335 662.5 12.6002C662.5 12.4002 662.533 12.2002 662.6 12.0002C661.8 11.9002 661.1 11.9002 660.3 11.8002C660.2 11.0002 660.9 10.0001 659 10.2001C656.1 10.5001 653.1 9.80015 650.2 9.70015C649.2 9.60015 648.3 9.80016 647.3 9.60016C648.567 9.40016 649.833 9.23349 651.1 9.10016C651.1 8.96683 651.1 8.83348 651.1 8.70015C650.433 8.63348 649.767 8.56682 649.1 8.50015C649.033 8.36682 649 8.20015 649 8.00015C649.933 7.53349 650.9 7.10015 651.9 6.70015C651.9 6.50015 651.933 6.30016 652 6.10016C650.133 5.70016 648.267 5.33349 646.4 5.00015C646.4 4.73349 646.4 4.46682 646.4 4.20015C650.1 5.20015 653.7 5.70015 657.6 4.50015C657.1 3.80015 656.7 3.30016 656.3 2.80016C658.4 3.40016 660.5 1.20016 662.6 2.60016C662.533 2.80016 662.5 3.00015 662.5 3.20015C661.433 3.20015 660.367 3.20015 659.3 3.20015C659.3 3.40015 659.267 3.60016 659.2 3.80016C659.8 4.00016 660.4 4.40015 660.9 4.40015C663.8 4.50015 666.8 4.80016 669.4 3.30016C670.6 2.50016 671.7 1.50016 673.1 1.10016C677.4 0.000158668 681.7 1.00016 686 1.30016C687.6 1.40016 689.2 1.60015 690.7 1.40015C693.5 1.10015 696.2 0.50015 698.9 0.20015C699.4 0.10015 699.8 0.600156 700.3 0.800156C699.9 1.50016 699.7 2.70015 699.1 2.90015C697.4 3.60015 695.5 3.80015 693.7 4.40015C691.4 5.20015 689.1 6.00015 686.8 6.90015C685.3 7.50015 684 7.40015 682.6 6.50015C680.9 5.40015 678.8 5.90015 678.2 7.50015C679.2 7.76682 680.2 8.03349 681.2 8.30016C681.133 8.43349 681.1 8.60016 681.1 8.80016C676.6 9.60016 672.1 10.4002 667.3 11.3002C667.7 11.5002 667.8 11.7001 668 11.7001C673.3 11.8001 678.6 11.9002 683.9 11.8002C684.7 11.8002 685.5 11.2001 686.5 10.7001C689.1 12.3001 692.1 11.3002 695 10.3002C697.6 9.40016 699.6 9.40015 701.5 11.9001C703.4 14.5001 706 15.0002 709 14.0002C710.1 13.7002 711.3 13.5002 712.4 13.3002C712.7 13.2002 713 13.2002 713.1 13.3002C713.9 15.2002 716.1 14.7002 717 15.8002C717.3 18.0002 717.4 20.1001 717.8 22.2001C718 22.9001 718.6 23.6002 719.1 24.3002C719.3 24.5002 719.7 24.7001 719.6 24.9001C719.5 26.3001 720.2 27.3002 720.7 28.5002C721.2 29.9002 721.7 29.9002 722.7 30.0002C723.1 30.0002 723.5 30.1001 723.9 30.2001C723.967 30.4001 724.033 30.6002 724.1 30.8002C720.6 32.3002 717.1 33.8002 713.5 35.3002C713.7 36.4002 713.9 37.3002 714.2 38.8002C708.4 38.5002 702.6 37.3001 697.1 39.9001C697.5 41.5001 698.4 42.0002 699.9 41.3002C700.6 40.9002 701.3 40.4002 702 40.0002C704.1 39.1002 706 40.3001 707.9 40.7001C709.6 41.1001 711.3 41.5002 712.9 42.0002C713.6 42.1002 714.2 42.6002 714.6 43.3002C719.133 43.0335 723.667 42.7668 728.2 42.5002C728.267 42.7668 728.3 43.0001 728.3 43.2001C727.6 43.5001 726.9 43.9002 726.1 44.1002C725.1 44.4002 723.5 43.5002 723.1 45.6002C723.1 46.1002 721.9 46.4001 721.2 46.5001C719.8 46.6001 718.3 46.5002 716.8 46.6002C716.4 46.6002 715.9 46.9001 715.5 47.1001C715.7 47.6001 715.7 48.3001 716.1 48.7001C717.6 50.1001 719.5 50.8001 721.5 50.8001C722.3 50.9001 723 51.0001 723.8 51.0001C723.8 51.2668 723.8 51.5335 723.8 51.8001C721.2 52.1001 718.7 52.4001 715.6 52.8001C719.4 53.7001 722.8 54.9001 725 58.5001C724.7 59.6001 723.9 60.0001 722.8 60.1001C721.8 60.1001 720.9 60.2001 719.9 60.3001C719.9 60.5001 719.9 60.7001 719.9 60.9001C721.1 61.1001 722.3 61.3001 723.5 61.5001C723.5 61.6335 723.5 61.7668 723.5 61.9001C723.1 62.1001 722.733 62.2668 722.4 62.4001C723.2 65.3001 726.1 64.9001 728 66.5001C726.9 66.9001 726.1 67.1001 725.3 67.4001C725.233 67.5335 725.2 67.7001 725.2 67.9001C726.4 68.6335 727.6 69.3335 728.8 70.0001C728.733 70.2001 728.7 70.3668 728.7 70.5001C725.2 70.9001 721.5 70.0001 718.1 71.1001C718.033 71.3001 717.967 71.5001 717.9 71.7001C721.5 73.7001 725.1 75.7335 728.7 77.8001C728.7 77.9335 728.7 78.0668 728.7 78.2001C726.3 78.6001 723.9 79.0001 721.2 79.5001C723.5 81.2001 725.5 82.7001 727.7 84.2001C726.6 84.5001 725.5 84.7001 724.4 85.0001C724.2 86.6001 726.8 86.9001 725.7 89.1001C723.4 86.1001 720.6 85.5001 717.5 86.2001C715.4 86.6001 713.2 86.8001 711.1 87.1001C711.1 87.3001 711.067 87.5335 711 87.8001C713 88.3001 714.9 88.8001 716.8 89.2001C718.6 89.6001 719 90.0001 718.7 91.9001C720.4 93.3001 720.3 94.2001 718.5 95.4001C717.7 95.9001 716.9 96.3001 716.1 96.8001C715.8 97.0001 715.5 97.2001 715.4 97.5001C714.9 98.5001 714.4 99.5001 713.8 100.7C714.5 100.8 715.5 100.9 716.9 101C715.4 101.7 714.3 102.2 712.8 102.8C713.4 103.6 713.8 104.6 714.4 104.9C716.8 105.9 717.9 107.5 717.2 110.3C717.2 110.4 717.3 110.5 717.3 110.6C717.3 110.7 717.3 110.8 717.2 111.1C716.8 111.2 716.2 111.2 715.8 111.4C715.4 111.6 715.1 112 714.8 112.3C715.1 112.7 715.4 113.3 715.8 113.4C717 113.7 718.1 113.7 719.5 113.8C718.1 116.3 714.3 114.5 714 118.2C712.8 118.2 711.3 118 711 120C713.9 121 716.7 120.8 719.6 120.2C720.3 120.1 721 120.4 721.8 120.5C721.733 120.7 721.7 120.9 721.7 121.1C719.167 121.967 716.6 122.8 714 123.6C715.1 124.8 716 126 717.1 127.2C716.8 127.6 716.5 128 716.2 128.3C717.3 132.1 720.5 131 723.5 131.2C721.1 133.1 718.4 131.5 716.9 133.4C717.5 134.5 718 135.4 718.5 136.3C717.7 136.8 716.9 137.2 715.8 137.9C717.1 138.3 718 138.6 719.1 138.9C718.7 139.1 718.3 139.2 717.8 139.5C719 140.2 720 140.8 721.1 141.5C721.033 141.567 720.967 141.667 720.9 141.8C718.3 141.4 715.733 140.967 713.2 140.5C713.133 140.767 713.067 141 713 141.2C714.133 141.867 715.267 142.533 716.4 143.2C716.4 143.267 716.367 143.333 716.3 143.4C714.8 142.9 713.3 142.2 711.8 141.9C709.5 141.4 707.2 141 704.9 141C703.3 140.9 701.5 142.2 700.3 141.6C698.8 140.9 697.4 140.6 695.9 140.7C695.2 140.8 694.5 141.2 693.8 141.5C693.867 141.767 693.933 142.033 694 142.3C695.4 142.3 696.8 142.3 698.2 142.3C698.2 142.433 698.2 142.533 698.2 142.6C696.2 143.4 694.2 144.1 692.2 144.9C694.267 145.7 696.367 146.467 698.5 147.2C698.5 147.4 698.5 147.6 698.5 147.8C698 147.9 697.5 148.1 696.9 148.2C697.1 148.6 697.3 148.9 697.5 149.3C697.2 149.3 697.1 149.4 696.9 149.4C695.7 149.1 695 149.8 694 150.5C692.5 151.7 690.7 152.6 689.1 153.7C688.5 154.1 687.8 154.4 687.3 155C687.1 155.2 687.1 156.1 687.3 156.2C689.2 157.2 690.7 159.3 693.3 158.8C693.2 158.4 693.1 158 692.9 157.3C693.4 157.5 693.8 157.6 694.1 157.8C695.2 158.5 696.3 159.5 697.5 160C698.7 160.6 698.6 161.6 698.6 162.5C698.5 163.5 698.2 164.5 697.9 165.5C698.9 165.9 699.6 166.1 700.3 166.4C700.233 166.6 700.167 166.8 700.1 167C698.3 166.467 696.467 165.933 694.6 165.4C694.6 165.6 694.567 165.767 694.5 165.9C694.833 166.1 695.2 166.3 695.6 166.5C695.6 166.7 695.633 166.867 695.7 167C694.8 167.2 693.9 167.6 693.1 167.5C690.3 167.2 688.1 168.7 685.6 169.5C683.7 170.1 681.7 170.3 679.7 170.3C674.5 170.3 669.2 170 663.9 169.8C662.1 169.8 660.4 169.6 658.6 169.1C656.6 168.5 654.3 169 652.2 169C644.8 169 637.5 169 630.2 169.2C621.9 169.4 613.5 169.8 605.2 170.3C600.7 170.6 596.1 171.1 591.5 171.5C590.4 171.6 589.2 172.2 588.1 172.1C585.7 172 583.3 171.3 581 171.5C575.7 172.1 570.5 170.3 565.2 171.2C565.2 171.067 565.2 170.9 565.2 170.7C567.4 170.5 569.567 170.333 571.7 170.2C558.8 168.3 545.9 170 533 169.3C534.9 168.1 535.1 168.1 537.2 169.1C537.4 169.2 537.7 169.3 538 169.2C543.6 168.9 549.3 168.4 554.9 168.1C557.1 167.9 559.3 168 561.4 167.8C561.9 167.8 562.4 167.5 562.9 167.3C562.9 167.1 562.9 166.933 562.9 166.8C561.7 166.5 560.5 166.3 559.4 165.9C558.1 165.4 557 165.7 556.3 167.1C555.3 165.4 554.2 165.1 552.2 165.9C549.9 166.9 547.7 166.7 544.9 165.3C546.3 165.2 547.4 165.1 548.5 165C548.5 164.867 548.467 164.7 548.4 164.5C547.467 164.433 546.533 164.333 545.6 164.2C545.6 164.067 545.6 163.933 545.6 163.8C549.3 163.8 553.1 163.8 556.7 163.8C557 164.2 557.3 164.8 557.6 164.8C559.7 164.8 561.8 164.7 564 164.2C563.8 164 563.5 163.8 563 163.4C571.4 163.2 579.5 164.2 587.6 162.1C582.8 161.967 578 161.8 573.2 161.6C573.133 161.333 573.1 161.067 573.1 160.8C573.767 160.6 574.4 160.4 575 160.2C575 160.067 575 159.933 575 159.8C573.467 159.8 571.9 159.8 570.3 159.8C570.2 159.8 569.9 159.9 569.9 160C569.1 163.1 566.9 161 565.4 161.5C566.2 161.233 567.033 160.967 567.9 160.7C567.833 160.433 567.8 160.2 567.8 160C566.8 160 565.767 160 564.7 160C557.2 160.2 549.8 160.4 542.3 160.5C539 160.6 535.7 160.4 532.3 160.5C530.8 160.5 529.2 161 527.6 161.3C527.667 161.433 527.7 161.6 527.7 161.8C527.4 161.5 527.1 160.9 526.8 160.9C522.8 161 518.8 161.1 514.8 161.3C514.8 161.5 514.8 161.7 514.8 161.9C515.8 162 516.8 162.3 517.8 162.2C520.8 161.8 521.2 161.9 523.9 164.5C522.2 164.7 520.8 164.9 519.3 165.1C518.9 165.2 518.5 165.6 517.8 166C514.4 166.3 510.5 166.6 506.7 166.9C506.633 167.1 506.6 167.267 506.6 167.4C507 167.8 507.4 168.2 507.8 168.6C507.733 168.733 507.667 168.867 507.6 169C507.1 168.7 506.6 168.3 506 168.1C505.4 167.9 504.8 167.6 504.3 167.7C502.6 167.8 501 168.1 499.3 167.5C497.7 167 495.9 167.7 493.9 167.8C495.9 166.9 497.7 165.9 499.7 165.3C501.8 164.6 504 164.2 506.1 163.8C508.3 163.4 510.5 163 513 162.6C510.5 160.8 497.4 161.9 494.9 162.7C496.2 163.3 497.1 163.6 497.9 164C497.7 165 497.2 165.2 493.9 165.2C494.3 164.7 494.8 164.3 495.5 163.5C494.7 163.4 494.3 163.2 494 163.3C491.8 164.5 489.4 164 487 164.2C485.9 164.2 484.7 164.6 484.3 162.8C484.2 162.6 483.3 162.4 482.8 162.4C482.6 162.4 482.5 163.1 482.2 163.8C480.8 163.267 479.267 162.7 477.6 162.1C477.8 161.7 478 161.2 478.3 160.4C476.7 160.7 476.3 161.6 476.2 162.9C475.5 162.8 474.7 162.7 473.9 162.6C473.9 162.467 473.9 162.333 473.9 162.2C474.367 162 474.867 161.833 475.4 161.7C474.2 161.4 472.9 159.9 471.9 162.1C471.8 162.3 471.3 162.4 471 162.4C467.3 162.5 463.6 162.4 459.9 162.1C462.233 161.767 464.533 161.433 466.8 161.1C466.9 161.1 467.1 161.1 467.1 161.1C468.7 162.5 469.8 161.7 471 160.4C471.2 160.1 471.8 160.2 472.2 160.3C474.4 160.7 476.4 161 477.9 158.7C478 158.6 478.4 158.7 478.7 158.6C478.2 160 478.7 160.2 482 159.8C481.7 159.6 481.5 159.4 481.1 159C483 159 484.6 158.9 486.2 159C488.6 159.2 490.9 159.7 493.3 159.8C495.6 159.9 497.8 159.6 500.1 159.5C500.367 159.5 500.6 159.133 500.8 158.4C499 158.2 497.1 158.1 495.1 157.9C495.1 157.7 495.2 157.3 495.1 157.1C494.9 156.8 494.7 156.4 494.5 156.3C494.2 156.3 493.8 156.5 493.6 156.6C493.1 157 492.7 157.8 492.3 157.8C489.1 157.9 486 157.9 483.1 157.9C483.9 157.4 485 156.7 486 156.1C485.933 155.9 485.833 155.7 485.7 155.5C484.6 155.7 483.2 154.3 482.7 156.1C481.6 155.9 480.6 155.6 479.6 155.4C479.4 155.3 478.9 155.4 478.8 155.6C478 157.7 476.4 156.6 475 156.7C475.3 156.4 475.7 156.1 476.1 155.7C475.7 155.6 475.4 155.4 475.1 155.4C473.033 155.333 470.933 155.333 468.8 155.4C467.7 155.4 466.6 155 465.8 156.4C465.7 156.6 464.8 156.4 464.3 156.4C463.1 156.3 462 156.1 460.9 156.1C458.4 156.1 456 156.2 453.6 156.2C451.8 156.2 450 156.3 448.3 156.3C447.9 156.4 447.5 156.6 447.1 156.8C446.7 156.9 446.3 157.2 446 157.2C441.6 155.9 437.1 157.1 432.6 157C431.6 156.9 430.5 157.1 429.6 156.8C429.3 156.6 429 156.3 428.6 156.3C426.133 156.233 423.667 156.233 421.2 156.3C419.6 156.3 418 156.5 416.4 156.5C415.1 156.5 413.8 156.5 412.6 156.4C412.1 156.3 411.6 155.8 411.2 155.9C408 155.9 404.8 156 401.6 156.1C398.4 156.2 395.2 156.5 392 156.7C391.933 156.433 391.9 156.2 391.9 156C392.7 155.8 393.5 155.567 394.3 155.3C394.3 155.1 394.3 154.9 394.3 154.7C393 154.7 391.7 154.5 390.3 154.6C389 154.6 387.6 154.6 386.3 154.9C385 155.3 383.7 156 382.4 156.6C382.467 156.4 382.533 156.2 382.6 156C382.3 155.7 381.9 155.1 381.5 155.1C380.2 155.2 378.9 155.5 377.5 155.7C375.033 155.967 372.533 156.2 370 156.4C369.7 156.4 369.4 156.3 369 156.2C369 156.067 369 155.9 369 155.7C370.1 155.6 371.2 155.3 372.4 155.3C373.5 155.4 374.5 155.3 375.2 154.1C375.3 153.8 376 153.5 376.1 153.6C377.2 155.1 378.7 154.2 379.9 154.2C381.8 154.2 383.8 154 385.6 153.7C387.2 153.4 388.6 154 390.1 153.8C391.2 153.6 392.3 153.2 393.4 153.1C395.8 152.9 398.1 152.8 400.5 152.6C401.1 152.6 401.7 152.6 402.3 152.6C402.3 152.4 402.3 152.2 402.3 152C400.5 152 398.7 152 396.9 152C394.6 152.1 392.1 152.7 390 152.1C385.3 150.8 381 152.8 376.5 152.7C373.5 152.6 370.5 152.8 367.5 152.7C367 152.7 366.5 152.3 366 152C366.067 151.8 366.1 151.567 366.1 151.3C368 151.2 369.8 151 371.7 150.8C371.5 150.5 371.3 150.1 371.1 149.6C372.2 149.4 373 149 373.4 150.6C373.5 150.9 374.5 151.1 375 151.1C380.133 150.967 385.267 150.8 390.4 150.6C393.4 150.5 396.4 150.3 399.5 150.5C398.967 150.633 398.467 150.767 398 150.9C398 151.033 398 151.167 398 151.3C399.933 151.167 401.9 151.033 403.9 150.9C403.9 150.633 403.867 150.4 403.8 150.2C403.067 150.267 402.333 150.333 401.6 150.4C401.6 150.2 401.6 150.033 401.6 149.9C405.6 149.633 409.6 149.367 413.6 149.1C413.6 148.967 413.6 148.833 413.6 148.7C413.2 148.5 412.7 148.2 412.2 147.8C412.533 147.667 412.867 147.533 413.2 147.4C413.2 147.267 413.2 147.1 413.2 146.9C410.9 146.9 408.5 146.9 406 146.9C406.5 147.2 406.8 147.4 407.4 147.7C405 148.2 402.8 148.7 400.6 149.1C398.4 149.5 396.2 149.8 394.1 148.3C394.4 148.1 394.6 148 394.8 147.8C394.8 147.733 394.767 147.633 394.7 147.5C392.633 147.633 390.567 147.767 388.5 147.9C385.3 148 382 148.1 378.8 148.3C377.6 148.4 376.3 148.7 374.9 148.6C376.1 148.1 377.3 147.7 378.3 147.3C376.8 146.3 374.8 146.7 373.3 148.1C372.7 148.6 371.6 148.4 370.8 148.5C370.8 148.3 370.767 148.1 370.7 147.9C371.3 147.8 371.8 147.7 372.6 147.5C372.1 146.8 371.8 146.4 371.5 146C373.8 146 376.2 146 378.7 146C378 145.4 377.3 145 376.6 144.5C376.5 144.4 376.2 144.4 376.2 144.4C375.3 146.5 373.9 144.7 372.8 144.9C370.2 145.1 367.6 144.8 365 145.2C361.2 145.8 357.4 145.1 353.6 145.5C350.3 145.8 346.9 145.5 343.5 145.5C343.3 145.5 343.1 145.6 342.4 145.9C349.6 147.3 356.5 144.9 363.5 147C362.8 147.4 362.3 147.6 361.8 147.9C362.9 147.9 363.9 147.9 364.9 147.9C364.967 148.167 365.033 148.4 365.1 148.6C364.5 148.8 363.8 149.4 363.4 149.2C360.5 147.6 357.9 148.8 355.3 150C354.4 150.4 353.4 150.8 352.3 151.3C352.7 149 356.2 150.8 355.2 147.8C356.4 147.7 357.3 147.6 358.2 147.5C358.2 147.3 358.2 147.133 358.2 147C346.4 147.3 334.6 147.6 322.2 148C323.1 148.5 323.4 148.7 323.9 149C323.7 149.1 323.6 149.3 323.5 149.3C322.1 149.5 320.8 149.6 320.2 151.3C320 151.8 318.5 151.6 317.6 151.8C317.533 151.6 317.5 151.4 317.5 151.2C318.033 150.933 318.6 150.7 319.2 150.5C319.2 150.367 319.2 150.267 319.2 150.2C313.8 150.2 308.4 150.2 303 150.2C303 150.133 303 150.1 303 150.1C303.667 149.967 304.333 149.833 305 149.7C304.9 147.5 304.6 147.3 300.6 146.3C301.4 146.233 302.2 146.167 303 146.1C303 145.9 303 145.7 303 145.5C300.133 145.5 297.3 145.5 294.5 145.5C291.7 145.5 288.867 145.5 286 145.5C286 145.767 286 146 286 146.2C290.267 146.2 294.533 146.2 298.8 146.2C298.6 147.1 298.6 147.2 295 147.7C293.5 147.9 292 147.7 290.5 147.9C293.9 149.6 297.8 147.8 301.5 149.9C300.8 150.1 300.2 150.5 299.6 150.5C296.3 150.6 293 150.7 289.6 150.6C283 150.5 276.4 150.3 269.8 150.2C265.7 150.2 261.5 150.5 257.4 150.5C256.3 150.5 255.1 149.9 253.6 149.5C254.4 149.3 254.9 149 255.4 149.1C257.2 149.1 259.1 149.3 260.9 149.3C261.8 149.4 262.8 149.7 263.3 148.3C263.5 147.9 264.4 147.9 265 147.4C262.267 147.2 259.567 147 256.9 146.8C256.833 147 256.8 147.2 256.8 147.4C257.667 147.533 258.5 147.667 259.3 147.8C258.1 148.6 256.9 148.5 255.8 147.7C255.1 147.3 254.3 147.1 253.5 147C251 146.9 248.4 146.8 245.9 146.7C243.5 146.7 241.1 146.7 238.3 146.7C238.9 146.9 239.2 147 239.5 147.1C240.9 147.6 242.3 148.2 243.8 148.5C245.1 148.6 246.5 148.3 247.8 148.2C247.7 149.1 247 149.3 245.9 149.2C244.3 149 242.6 148.7 240.9 148.8C238.5 148.9 236.2 149.3 233.8 149.5C230.4 149.7 226.9 149.4 223.7 150.2C221.2 150.8 219.2 149 217 149.9C217 149.7 217 149.5 217 149.3C219.6 149.2 222.2 149.2 224.8 149.1C226.1 149 227.3 148.6 228.6 148.4C228.7 148.1 228.8 147.7 228.9 147.6ZM51.9 160.9C51.7667 160.9 51.6667 160.933 51.6 161V160.9C51.6667 160.9 51.7667 160.9 51.9 160.9ZM218.5 20.1002C218.9 20.3002 219 20.4002 219.1 20.5002C219.1 20.3668 219.1 20.2335 219.1 20.1002C218.9 20.1002 218.7 20.1002 218.5 20.1002ZM532.5 21.8002C532.433 21.8002 532.4 21.8335 532.4 21.9001L532.3 21.8002C532.367 21.8002 532.433 21.8002 532.5 21.8002ZM229 148.9C230.8 149 232.6 149 234.4 148.9C234.7 148.8 234.9 147.8 235.2 147.3C235.067 147.233 234.933 147.133 234.8 147C235.4 146.867 235.967 146.767 236.5 146.7C236.5 146.567 236.5 146.433 236.5 146.3C234.9 146.4 233.4 146.5 231.7 146.7C232.2 147.4 232.4 147.8 232.5 147.9C231.233 148.1 229.933 148.267 228.6 148.4C228.8 148.6 228.9 148.9 229 148.9ZM103.2 164.2C103.2 164.2 103.233 164.2 103.3 164.2C103.3 164.2 103.267 164.2 103.2 164.2ZM105.6 165.6C105.9 165.8 106.5 165.2 107 164.9C107.2 165.3 107.3 165.9 107.6 166C108.8 166.7 110.1 167.3 111.6 166.3C110.5 165.4 109.2 165.3 108.1 164.6C106.9 163.8 104.9 164.3 103.3 164.2C104.1 164.7 104.8 165.3 105.6 165.6ZM95.5 163.5C96.6 164.1 97.9 164.3 99.1 164.8C100.2 165.2 101.3 166.3 102.1 164.3C102.2 164.2 102.7 164.2 103.1 164.2C100.7 162.4 98 163.5 95.5 163.5ZM219.6 157.7C219.667 157.7 219.7 157.733 219.7 157.8C217.6 157.6 215.4 157.2 213.2 157C210.867 156.733 208.5 156.567 206.1 156.5C203.7 156.4 201.3 156.5 198.9 156.5C196.5 156.5 194.2 156.4 191.8 156.4C189.533 156.4 187.233 156.4 184.9 156.4C184.9 156.6 184.9 156.833 184.9 157.1C186.4 157.5 187.8 158.1 189.3 158.2C190.8 158.2 192.4 157.8 194 157.5C194 158.1 194 158.6 193.9 159.1C198.1 161.1 212.2 161.9 216.1 160.2C213.5 160 210.933 159.8 208.4 159.6C209.2 158.3 207.1 158.9 206.7 157.8C207.6 158 208.3 158.1 209 158.2C210.1 158.4 211.1 158.7 212.2 158.8C213.7 159 215.2 158.9 216.7 159.1C218.2 159.2 219.7 159.6 221.2 159.7C222.2 159.8 222.8 159.5 221.9 158.4C222.367 158.2 222.867 157.967 223.4 157.7C223.333 157.567 223.3 157.4 223.3 157.2C222.1 157.333 220.867 157.5 219.6 157.7ZM69.9 156.7C72.8 154.3 76.4 156.4 79.4 154.8C78.7 154.5 77.9 154.5 77.2 154.5C71.2 154.033 65.2333 153.567 59.3 153.1C59 153.1 58.6 153.1 58.5 152.9C58 151.8 57.5 151.9 56.7 152.7C56.5 152.9 55.9 152.8 55.5 152.7C52.9 152.5 50.4 152.5 47.8 152.1C46.3 151.8 44.8 151.3 43.5 150.6C41.6 149.7 39.8 148.7 37.6 149.4C38.3 149.7 39 149.7 39.6 149.8C40.2 150 40.8 150.2 41.2 150.5C41.7 150.9 42 151.5 42.5 151.7C43.6 152.2 44.7 152.5 45.9 152.8C48.2 153.5 50.4 154.2 52.7 154.7C55.1 155.3 57.7 155.2 59.8 156.3C63.2 158 66.5 158.3 70.1 157.8C70.2 157.8 70.4 157.7 70.6 157.6C70.4 157.3 70.2 157 69.9 156.7ZM458.2 32.4001C458.2 32.2668 458.2 32.1335 458.2 32.0002C456.3 31.9002 454.4 31.7001 452.5 31.7001C444.7 31.7001 436.9 31.8002 429.1 31.8002C425.4 31.8002 421.8 31.4001 418.6 33.9001C418.6 33.9001 418.7 34.0002 418.8 34.0002C420.1 34.1002 421.2 33.2001 422.3 32.9001C424.2 32.3001 426.6 32.6001 428.6 33.2001C429.2 33.5001 430 34.0002 430.8 34.0002C432.6 34.1002 434.4 34.0002 436.2 34.0002C436.5 34.0002 436.8 33.8002 437.3 33.6002C436.8 33.2002 436.5 32.9002 435.8 32.3002C438.5 32.5002 440.7 32.6002 443 32.8002C443 32.9335 443 33.1002 443 33.3002C441.867 33.3668 440.7 33.4335 439.5 33.5002C445.1 33.9002 450.8 35.5002 456.5 33.5002C455.7 33.3002 454.933 33.1335 454.2 33.0002C454.2 32.8668 454.2 32.7668 454.2 32.7001C455.533 32.5668 456.867 32.4668 458.2 32.4001ZM242.1 160.6C241.3 160.4 240.7 160.2 240.1 160C238.6 159.6 237.1 159.3 235.9 157.7C235.3 156.9 234.3 155.7 233.2 156.7C232.5 157.3 232.2 158.5 231.7 159.5C231.3 159.1 230.7 158.6 229.8 157.7C228.2 157.6 226 157.5 223.9 157.4C223.9 157.533 223.867 157.7 223.8 157.9C224.3 158.2 224.8 158.6 225.7 159.2C224.6 159.3 224 159.3 222.7 159.4C223.8 160.6 224.6 161.5 225.5 162.5C226.3 161.4 227.4 161.5 228.5 162.5C229 162.9 229.8 163 230.5 162.9C232.3 162.7 234.1 162.4 235.9 162.2C236 162.2 236.1 162 236.2 161.9C236 161.633 235.833 161.367 235.7 161.1C237.6 159.4 239.8 161.1 242.1 160.6ZM468.3 34.5002C468.3 34.7002 468.3 34.9002 468.3 35.1002C469.6 35.2002 470.8 35.3002 472 35.3002C474.9 35.4002 477.8 35.8002 480.6 35.3002C482.4 35.0002 483.9 35.3001 485.5 35.4001C487.2 35.5001 489.2 35.7001 490.6 34.9001C491.7 34.2001 492.6 33.9002 493.8 34.0002C494.6 34.1002 495.5 34.0002 496.4 34.0002C496.3 33.8002 496.3 33.7001 496.2 33.7001C496 33.6001 495.8 33.5001 495.6 33.4001C493 32.9001 490.5 33.3002 488 34.3002C487.3 34.6002 486.3 33.9002 485.5 33.6002C485.4 33.6002 485.5 32.8001 485.6 31.9001C484.5 32.2001 483.4 32.2002 482.8 32.8002C481.7 33.7002 479.9 34.2001 478.2 33.4001C479.5 33.2001 480.7 33.1001 481.8 32.9001C481.8 32.7668 481.8 32.6001 481.8 32.4001C479.533 32.4001 477.3 32.4001 475.1 32.4001C474.5 32.4001 473.9 32.7002 473.3 32.6002C472.2 32.5002 471 31.6001 470.7 33.7001C470.6 33.9001 469.9 34.1001 469.5 34.2001C469.1 34.3001 468.7 34.4002 468.3 34.5002ZM404.7 43.6002C404.7 43.8002 404.7 43.9668 404.7 44.1002C405.633 44.1668 406.567 44.2335 407.5 44.3002C407.5 44.5002 407.5 44.7001 407.5 44.9001C406.1 44.9001 404.8 45.0001 403.4 44.9001C400.4 44.5001 400.4 44.5002 399.8 45.5002C406.4 45.5002 413.1 45.5002 419.9 45.5002C419.9 45.3002 419.9 45.0668 419.9 44.8002C419.5 44.8002 419.2 44.9001 418.9 44.9001C417.2 44.7001 415.2 45.0001 413.8 44.2001C412.4 43.4001 411.5 43.6001 410.3 44.2001C409.8 44.5001 409.3 44.7001 408.8 44.9001C408.6 44.6335 408.433 44.4001 408.3 44.2001C408.767 44.0668 409.2 43.9668 409.6 43.9001C409.533 43.7001 409.433 43.5335 409.3 43.4001C407.767 43.4668 406.233 43.5335 404.7 43.6002ZM686.5 3.40015C686.5 3.13348 686.5 2.90015 686.5 2.70015C685.2 2.40015 683.9 1.90015 682.6 2.00015C679.1 2.20015 675.7 2.80015 672.2 3.20015C671.7 3.30015 671.2 3.60016 670.7 3.80016C670.767 3.93349 670.8 4.06682 670.8 4.20015C676 3.93348 681.233 3.66681 686.5 3.40015ZM668.5 8.50015C666.7 7.70015 665.3 6.20015 663 6.50015C661.1 6.70015 659 5.80015 656.8 6.70015C658.3 7.00015 659.8 6.90016 660.7 7.60016C663.2 9.50016 665.8 9.00015 668.5 8.50015ZM477 143.5C477 143.7 476.967 143.9 476.9 144.1C477.6 144.3 478.3 144.6 479 144.9C479.4 145.1 479.9 145.7 480.4 145.7C482.2 145.7 484 145.5 485.9 145.4C486.367 145.333 486.867 145.267 487.4 145.2C487.4 144.933 487.4 144.667 487.4 144.4C484 143.3 480.5 143.4 477 143.5ZM426.2 149.9C426.2 150.233 426.233 150.567 426.3 150.9C432.367 150.7 438.433 150.5 444.5 150.3C444.5 150.167 444.5 150.033 444.5 149.9C438.433 149.9 432.333 149.9 426.2 149.9ZM94.3 18.1002C94.3 17.9002 94.3 17.6668 94.3 17.4001C90 17.4001 85.6 16.4002 81.3 17.6002C81.3 17.7335 81.3 17.9002 81.3 18.1002C84.1 18.1002 86.8666 18.1002 89.6 18.1002C89.6 18.1668 89.6 18.2668 89.6 18.4001C89.0666 18.4001 88.5333 18.4335 88 18.5002C88.0667 18.7002 88.1 18.9002 88.1 19.1002C90.1666 18.7668 92.2333 18.4335 94.3 18.1002ZM94.9 18.2001C94.9667 18.5335 95.0333 18.8668 95.1 19.2001C97.2333 19.0001 99.3667 18.8002 101.5 18.6002C101.9 18.6002 102.3 18.7001 102.7 18.7001C104.3 18.7668 105.9 18.7668 107.5 18.7001C103.9 18.1001 100.4 17.7002 96.8 17.5002C96.1 17.5002 95.5 17.9001 94.9 18.2001ZM39.2 141.9C42.2 142.5 45.1 142.8 48.5 141.8C46.3 141.2 44.6 140.7 42.9 140.3C42.6 140.3 42.2 140.3 41.9 140.4C41.1 140.8 40.2 141.3 39.2 141.9ZM669.7 6.70015C669.7 6.96682 669.667 7.23349 669.6 7.50015C671.2 7.60015 672.8 7.80015 674.7 8.00015C674.5 6.70015 674.6 5.40015 674 4.90015C673.3 4.40015 672 4.10015 671.2 5.40015C671.5 5.80015 671.7 6.20015 672.3 6.90015C671.2 6.80015 670.4 6.80015 669.7 6.70015ZM243.5 157.1C243.5 156.833 243.533 156.567 243.6 156.3C242.133 155.967 240.7 155.6 239.3 155.2C239.233 155.333 239.2 155.467 239.2 155.6C239.733 155.8 240.3 155.967 240.9 156.1C240.9 156.233 240.9 156.4 240.9 156.6C240.2 156.6 239.5 156.6 238.8 156.7C238.1 156.9 237.4 157.3 236.7 157.6C237.4 157.8 238.1 158.3 238.8 158.2C240.4 158 241.9 157.5 243.5 157.1ZM306.4 42.1002C306.3 41.3002 306.2 40.8002 306.2 40.3002C305.6 40.4002 304.9 40.4001 304.5 40.7001C303.9 41.3001 304.6 43.1002 305.5 43.1002C307.8 42.9002 310.2 42.6001 312.5 42.4001C312.5 42.1335 312.5 41.8668 312.5 41.6002C310.4 41.8002 308.3 42.0002 306.4 42.1002ZM212 23.9001C207.9 23.3001 203.7 22.4001 199.6 23.9001C203.733 23.9001 207.867 23.9001 212 23.9001ZM394.6 45.1002C396 46.2002 398.5 46.0001 399 44.9001C398.7 44.5001 398.5 44.2002 398.1 43.6002C399.3 43.6002 400.3 43.6002 401.2 43.6002C398.7 42.5002 395.8 43.2002 394.6 45.1002ZM338.4 46.8001C338.4 46.5335 338.4 46.2668 338.4 46.0002C335.2 46.4002 332 44.9001 328.8 46.8001C332 46.8001 335.2 46.8001 338.4 46.8001ZM198.2 148.6C198.2 148.467 198.2 148.3 198.2 148.1C196.9 147.8 195.3 147.9 194.2 147.1C192.5 146 191.4 146.4 190 148.1C192.9 148.9 195.6 148.2 198.2 148.6ZM172.1 150.5C175.5 151 179 152.7 182.3 149.7C180.8 148.8 180.5 148.9 179.9 149.6C179.5 150.1 178.9 150.4 178.4 150.4C176.3 150.5 174.2 150.5 172.1 150.5ZM707.5 45.5002C707.5 45.6335 707.5 45.8002 707.5 46.0002C707.9 46.1002 708.3 46.1002 708.7 46.1002C710.433 46.1002 712.167 46.0668 713.9 46.0002C714.4 45.9002 714.9 45.7002 715.4 45.6002C715 45.2002 714.5 44.6002 714.1 44.6002C711.9 44.8002 709.7 45.2002 707.5 45.5002ZM400.9 32.9001C400.833 32.7001 400.767 32.5002 400.7 32.3002C397.9 32.3002 395.067 32.3002 392.2 32.3002C393.9 33.0002 395.6 33.4002 397.3 33.6002C398.1 33.7002 399 33.7002 399.9 33.6002C400.3 33.5002 400.6 33.2001 400.9 32.9001ZM518.5 155.6C521.3 156.3 523.5 154.1 526 155.1C526.3 155.3 526.8 154.8 527.1 154.6C524.2 154.3 521.3 153.2 518.5 155.6ZM442 148.2C442 148.333 442 148.467 442 148.6C446 148.6 449.967 148.6 453.9 148.6C453.9 148.467 453.9 148.333 453.9 148.2C449.967 148.2 446 148.2 442 148.2ZM426.4 35.3002C428.9 36.5002 431.6 36.3002 434.3 36.3002C431.6 36.1002 429.2 34.1002 426.4 35.3002ZM242.3 162C242.3 161.733 242.3 161.467 242.3 161.2C241.1 161.2 239.9 161.1 238.7 161.2C238.3 161.3 237.7 161.8 237.7 162.1C237.7 162.7 238 163.4 238.4 163.8C238.9 164.1 239.6 164 240.1 164.1C240.167 163.967 240.2 163.833 240.2 163.7C239.9 163.4 239.5 163.2 239 162.8C240.3 162.5 241.3 162.3 242.3 162ZM321 46.0002C323.3 47.4002 325.2 47.5002 327.7 46.6002C326.8 46.0002 326.3 45.4001 325.8 45.4001C324.4 45.5001 322.9 45.8002 321 46.0002ZM248.1 153C246.4 151.9 238.9 151.6 236.1 152.4C240.1 152.6 243.9 152.8 248.1 153ZM528 144.4C526.8 144 525.6 143.5 524.2 143.3C522.9 143.1 521.4 143.1 520 143C520 143.2 520 143.4 520 143.6C521.467 143.667 522.933 143.767 524.4 143.9C524.4 144.033 524.4 144.2 524.4 144.4C524.267 144.533 524.1 144.7 523.9 144.9C527 145.5 527 145.5 528 144.4ZM523.5 158.6C523.5 158.467 523.533 158.3 523.6 158.1C522 157.3 517.8 157.6 516.7 159C519.2 158.9 521.3 158.8 523.5 158.6ZM518.9 154.2C517.7 154.2 516.8 154.2 515.8 154.2C516 154.6 516.4 154.9 516.3 155C515.3 157.3 513.1 155.7 511.6 156.7C513.3 158.6 514.9 156.1 516 156.6C517 155.7 517.8 155.1 518.9 154.2ZM281.3 145.9C281.3 145.633 281.3 145.4 281.3 145.2C280.5 145.2 279.7 145.2 278.9 145.2C277 145.2 275.1 145.1 273.3 145.2C273 145.2 272.7 145.7 272.4 146C272.7 146.1 273.1 146.3 273.5 146.3C274.3 146.2 275.1 145.9 275.9 145.9C277.7 145.8 279.5 145.9 281.3 145.9ZM264 145.7C264 145.833 263.967 145.967 263.9 146.1C266.167 146.3 268.467 146.467 270.8 146.6C270.867 146.467 270.933 146.333 271 146.2C270.7 145.9 270.4 145.2 270.1 145.3C268.1 145.3 266 145.6 264 145.7ZM250.5 28.0002C250.5 28.1335 250.5 28.3002 250.5 28.5002C252.8 27.9002 255.4 29.8002 257.5 27.3002C255.167 27.5002 252.833 27.7335 250.5 28.0002ZM468 33.8002C466.1 33.8002 464.4 33.8002 462.7 33.8002C464.6 35.3002 466.7 35.2002 468 33.8002ZM420 32.5002C419.933 32.3668 419.9 32.2335 419.9 32.1002C417.9 32.1002 415.9 32.1002 413.9 32.1002C413.9 32.2335 413.9 32.3668 413.9 32.5002C415.9 32.5002 417.933 32.5002 420 32.5002ZM112.9 165.7C118.3 168.2 118.3 168.2 118.7 166.6C116.767 166.333 114.833 166.033 112.9 165.7ZM213.8 23.5002C213.8 23.5668 213.8 23.6002 213.8 23.6002C216.467 23.6002 219.1 23.6002 221.7 23.6002C221.7 23.4002 221.7 23.1668 221.7 22.9001C219.033 23.1001 216.4 23.3002 213.8 23.5002ZM166.1 149.6C168 151.1 171.4 150.6 171.7 149.2C169.833 149.333 167.967 149.467 166.1 149.6ZM553 143.4C553 143.6 553 143.767 553 143.9C555.2 143.7 557.6 144.3 559.7 143.3C559.7 143.1 559.667 142.933 559.6 142.8C557.4 143 555.2 143.2 553 143.4ZM35.7 133.4C35.5667 133.667 35.4667 133.967 35.4 134.3C37.6 133.8 38.8 136.9 41.3 135.8C39.4333 135 37.5667 134.2 35.7 133.4ZM388.5 44.8002C386.6 45.0002 385.2 45.2001 383.6 45.4001C384.9 46.9001 387.4 46.7002 388.5 44.8002ZM429.3 42.3002C427.7 41.9002 426.1 41.6001 424.3 41.2001C425 42.7001 427.2 43.3002 429.3 42.3002ZM427.2 45.5002C425.6 44.0002 423.9 44.1002 422.8 45.5002C424.267 45.5002 425.733 45.5002 427.2 45.5002ZM301.5 41.4001C298.9 39.7001 298.5 39.9002 298 42.5002C299.1 42.2002 300.1 41.8001 301.5 41.4001ZM29.3 79.4001C29.3 79.2668 29.3 79.1335 29.3 79.0001C28.1 78.8001 26.8 78.6001 25.2 78.3001C25.6 79.2001 25.7 79.6001 25.9 80.0001C27.1 79.8001 28.2 79.6001 29.3 79.4001ZM382.2 45.7001C380.4 44.9001 378.6 44.2001 376.5 45.7001C378.7 45.7001 380.4 45.7001 382.2 45.7001ZM188.3 150.6C186.2 150.5 184.6 150.4 183 150.3C184.6 151.9 186.2 151.5 188.3 150.6ZM507 143.6C507 143.4 507 143.2 507 143C505.467 143.2 503.933 143.4 502.4 143.6C502.467 143.8 502.5 144.033 502.5 144.3C503.967 144.033 505.467 143.8 507 143.6ZM496.3 144.2C496.233 144.4 496.2 144.633 496.2 144.9C497.733 144.833 499.267 144.733 500.8 144.6C500.8 144.333 500.8 144.067 500.8 143.8C499.267 143.933 497.767 144.067 496.3 144.2ZM441.4 37.5002C440.4 36.1002 438.2 36.0002 436.7 37.1002C438.4 37.3002 439.7 37.4002 441.4 37.5002ZM59.7 38.3002C58.4 38.4002 57.3 38.5002 55.8 38.6002C57.8 40.2002 58.2 40.1002 59.7 38.3002ZM222.5 161.7C222.5 161.5 222.5 161.3 222.5 161.1C220.9 160.967 219.267 160.867 217.6 160.8C217.6 160.933 217.6 161.1 217.6 161.3C219.267 161.433 220.9 161.567 222.5 161.7ZM514.9 142.9C514.9 143.1 514.9 143.333 514.9 143.6C516.1 143.6 517.3 143.6 518.5 143.6C518.5 143.333 518.533 143.1 518.6 142.9C517.333 142.9 516.1 142.9 514.9 142.9ZM127.4 169.8C127.4 169.533 127.433 169.3 127.5 169.1C126.3 169.1 125.2 167.9 124 168.9C123.933 169.1 123.9 169.333 123.9 169.6C125.1 169.667 126.267 169.733 127.4 169.8ZM94.4 163.6C93.5 162 92.5 162.3 91.5 162.7C91.4333 162.9 91.4 163.133 91.4 163.4C92.4 163.467 93.4 163.533 94.4 163.6ZM691.6 165.6C690.467 165.533 689.333 165.467 688.2 165.4C688.2 165.6 688.2 165.8 688.2 166C689.3 167 690.4 166.6 691.6 165.6ZM491.5 162.7C491.5 162.567 491.5 162.433 491.5 162.3C489.5 162.367 487.533 162.467 485.6 162.6C485.6 162.733 485.6 162.9 485.6 163.1C487.533 162.967 489.5 162.833 491.5 162.7ZM403.6 153.7C404.467 153.233 405.333 152.767 406.2 152.3C405.1 152.2 403.7 151.4 403.6 153.7ZM126.3 168.2C126.3 167.867 126.333 167.567 126.4 167.3C125.267 167.1 124.133 166.9 123 166.7C122.933 166.9 122.9 167.1 122.9 167.3C124.033 167.567 125.167 167.867 126.3 168.2ZM462.5 148.3C462.567 148.567 462.6 148.8 462.6 149C464.267 148.733 465.933 148.5 467.6 148.3C467.533 148.1 467.5 147.933 467.5 147.8C465.833 148 464.167 148.167 462.5 148.3ZM445.2 29.8002C445.2 30.2002 445.2 30.5668 445.2 30.9001C446.133 30.8335 447.1 30.7335 448.1 30.6002C448.033 30.4002 448 30.2002 448 30.0002C447.067 29.9335 446.133 29.8668 445.2 29.8002ZM504.2 159C504.2 159.2 504.2 159.433 504.2 159.7C505.533 159.633 506.867 159.533 508.2 159.4C508.2 159.2 508.2 159 508.2 158.8C506.867 158.867 505.533 158.933 504.2 159ZM477.2 145.8C477.133 145.533 477.067 145.267 477 145C475.8 145.4 474.6 145.767 473.4 146.1C473.4 146.367 473.433 146.6 473.5 146.8C474.7 146.467 475.933 146.133 477.2 145.8ZM589 162.1C589 162.167 589 162.233 589 162.3C590.667 162.3 592.333 162.3 594 162.3C594 162.1 594 161.933 594 161.8C592.333 161.867 590.667 161.967 589 162.1ZM408.9 28.4001C408.9 28.1335 408.867 27.8668 408.8 27.6002C407.667 27.6668 406.5 27.7335 405.3 27.8002C405.3 28.0002 405.3 28.2001 405.3 28.4001C406.5 28.4001 407.7 28.4001 408.9 28.4001ZM513.2 155.5C513.2 155.3 513.233 155.067 513.3 154.8C511.967 154.667 510.667 154.533 509.4 154.4C509.4 154.733 509.4 155.033 509.4 155.3C510.667 155.367 511.933 155.433 513.2 155.5ZM47.5 37.9001C48.6 37.3001 49.3 36.9001 50.3 36.4001C48.4 35.6001 48.3 35.7001 47.5 37.9001Z" fill="#70FF00"/>
</svg>
