<svg width="2100" height="2100" viewBox="0 0 2100 2100" fill="none" xmlns="http://www.w3.org/2000/svg">
<g clip-path="url(#clip0_126_1945)">
<path d="M-815.879 1456.9L-348.98 990.012V722.449L421.23 -47.7617" stroke="#70FF00" stroke-width="18.739" stroke-miterlimit="10" stroke-linecap="round" stroke-linejoin="round"/>
<path d="M-49.4883 2223.29L417.41 1756.39V1488.84L623.691 1282.55" stroke="#70FF00" stroke-width="18.739" stroke-miterlimit="10" stroke-linecap="round" stroke-linejoin="round"/>
<path d="M-351.59 1921.19L381.371 1188.23V920.672L885.52 416.52" stroke="#70FF00" stroke-width="18.739" stroke-miterlimit="10" stroke-linecap="round" stroke-linejoin="round"/>
<path d="M-445.359 980.461V712.91L519.238 -251.699" stroke="#70FF00" stroke-width="18.739" stroke-miterlimit="10" stroke-linecap="round" stroke-linejoin="round"/>
<path d="M321.031 1746.86V1479.3L721.711 1078.62" stroke="#70FF00" stroke-width="18.739" stroke-miterlimit="10" stroke-linecap="round" stroke-linejoin="round"/>
<path d="M284.988 1178.69V911.129L983.531 212.59" stroke="#70FF00" stroke-width="18.739" stroke-miterlimit="10" stroke-linecap="round" stroke-linejoin="round"/>
<path d="M321.031 1746.86L-102.449 2170.33" stroke="#70FF00" stroke-width="18.739" stroke-miterlimit="10" stroke-linecap="round" stroke-linejoin="round"/>
<path d="M284.988 1178.69L-404.551 1868.23" stroke="#70FF00" stroke-width="18.739" stroke-miterlimit="10" stroke-linecap="round" stroke-linejoin="round"/>
<path d="M-551.281 980.461V712.91L-439.578 601.211V419.898L142.57 -162.25" stroke="#70FF00" stroke-width="18.739" stroke-miterlimit="10" stroke-linecap="round" stroke-linejoin="round"/>
<path d="M179.07 1178.69V911.129L290.77 799.43V618.129L606.859 302.039" stroke="#70FF00" stroke-width="18.739" stroke-miterlimit="10" stroke-linecap="round" stroke-linejoin="round"/>
<path d="M1143.54 1451.88L879.199 1716.22H712.121" stroke="#70FF00" stroke-width="18.739" stroke-miterlimit="10" stroke-linecap="round" stroke-linejoin="round"/>
<path d="M1455.62 834.961L731.23 1559.34H632.809" stroke="#70FF00" stroke-width="18.739" stroke-miterlimit="10" stroke-linecap="round" stroke-linejoin="round"/>
<path d="M-259.281 1017.08V749.52L695.129 -204.891V-386.199" stroke="#70FF00" stroke-width="18.739" stroke-miterlimit="10" stroke-linecap="round" stroke-linejoin="round"/>
<path d="M507.109 1783.47V1515.91L897.59 1125.43V944.121" stroke="#70FF00" stroke-width="18.739" stroke-miterlimit="10" stroke-linecap="round" stroke-linejoin="round"/>
<path d="M471.059 1215.3V947.738L1159.41 259.391H1341.56" stroke="#70FF00" stroke-width="18.739" stroke-miterlimit="10" stroke-linecap="round" stroke-linejoin="round"/>
<path d="M73.1484 1178.69V641.488L300.91 413.738" stroke="#70FF00" stroke-width="18.739" stroke-miterlimit="10" stroke-linecap="round" stroke-linejoin="round"/>
<path d="M643.211 1250.19C639.629 1246.61 633.82 1246.61 630.238 1250.19L617.27 1263.16C613.691 1266.74 613.691 1272.55 617.27 1276.13L630.238 1289.1C633.82 1292.68 639.629 1292.68 643.211 1289.1L656.18 1276.13C659.762 1272.55 659.762 1266.74 656.18 1263.16L643.211 1250.19Z" stroke="#70FF00" stroke-width="18.739" stroke-miterlimit="10" stroke-linecap="round" stroke-linejoin="round"/>
<path d="M905.031 384.16C901.449 380.578 895.641 380.578 892.059 384.16L879.09 397.129C875.512 400.711 875.512 406.52 879.09 410.102L892.059 423.07C895.641 426.648 901.449 426.648 905.031 423.07L918 410.102C921.578 406.52 921.578 400.711 918 397.129L905.031 384.16Z" stroke="#70FF00" stroke-width="18.739" stroke-miterlimit="10" stroke-linecap="round" stroke-linejoin="round"/>
<path d="M741.328 1046.36C737.75 1042.79 731.941 1042.79 728.359 1046.36L715.391 1059.33C711.809 1062.91 711.809 1068.73 715.391 1072.31L728.359 1085.28C731.941 1088.86 737.75 1088.86 741.328 1085.28L754.301 1072.31C757.879 1068.73 757.879 1062.91 754.301 1059.33L741.328 1046.36Z" stroke="#70FF00" stroke-width="18.739" stroke-miterlimit="10" stroke-linecap="round" stroke-linejoin="round"/>
<path d="M1003.16 180.328C999.578 176.762 993.762 176.762 990.191 180.328L977.219 193.309C973.641 196.879 973.641 202.699 977.219 206.27L990.191 219.238C993.762 222.82 999.578 222.82 1003.16 219.238L1016.13 206.27C1019.71 202.699 1019.71 196.879 1016.13 193.309L1003.16 180.328Z" stroke="#70FF00" stroke-width="18.739" stroke-miterlimit="10" stroke-linecap="round" stroke-linejoin="round"/>
<path d="M916.141 916.609C916.141 911.551 912.031 907.441 906.969 907.441H888.629C883.57 907.441 879.461 911.551 879.461 916.609V934.949C879.461 940.012 883.57 944.121 888.629 944.121H906.969C912.031 944.121 916.141 940.012 916.141 934.949V916.609Z" stroke="#70FF00" stroke-width="18.739" stroke-miterlimit="10" stroke-linecap="round" stroke-linejoin="round"/>
<path d="M1382.49 255.102C1382.49 250.039 1378.38 245.93 1373.32 245.93H1354.97C1349.91 245.93 1345.8 250.039 1345.8 255.102V273.441C1345.8 278.5 1349.91 282.609 1354.97 282.609H1373.32C1378.38 282.609 1382.49 278.5 1382.49 273.441V255.102Z" stroke="#70FF00" stroke-width="18.739" stroke-miterlimit="10" stroke-linecap="round" stroke-linejoin="round"/>
<path d="M1079.66 633.141C1079.66 628.078 1075.55 623.969 1070.49 623.969H1052.15C1047.09 623.969 1042.98 628.078 1042.98 633.141V651.488C1042.98 656.551 1047.09 660.66 1052.15 660.66H1070.49C1075.55 660.66 1079.66 656.551 1079.66 651.488V633.141Z" stroke="#70FF00" stroke-width="18.739" stroke-miterlimit="10" stroke-linecap="round" stroke-linejoin="round"/>
<path d="M639.281 295.559C642.859 291.98 642.859 286.16 639.281 282.59L626.309 269.621C622.73 266.039 616.922 266.039 613.34 269.621L600.371 282.59C596.789 286.16 596.789 291.98 600.371 295.559L613.34 308.531C616.922 312.109 622.73 312.109 626.309 308.531L639.281 295.559Z" stroke="#70FF00" stroke-width="18.739" stroke-miterlimit="10" stroke-linecap="round" stroke-linejoin="round"/>
<path d="M333.328 407.25C336.91 403.672 336.91 397.859 333.328 394.281L320.359 381.309C316.781 377.73 310.969 377.73 307.391 381.309L294.422 394.281C290.84 397.859 290.84 403.672 294.422 407.25L307.391 420.219C310.969 423.801 316.781 423.801 320.359 420.219L333.328 407.25Z" stroke="#70FF00" stroke-width="18.739" stroke-miterlimit="10" stroke-linecap="round" stroke-linejoin="round"/>
<path d="M1188.79 406.75C1192.37 403.172 1192.37 397.359 1188.79 393.781L1175.82 380.809C1172.24 377.23 1166.43 377.23 1162.85 380.809L1149.88 393.781C1146.3 397.359 1146.3 403.172 1149.88 406.75L1162.85 419.719C1166.43 423.301 1172.24 423.301 1175.82 419.719L1188.79 406.75Z" stroke="#70FF00" stroke-width="18.739" stroke-miterlimit="10" stroke-linecap="round" stroke-linejoin="round"/>
<path d="M593.012 1002.53C596.59 998.949 596.59 993.141 593.012 989.559L580.039 976.59C576.461 973.012 570.648 973.012 567.07 976.59L554.102 989.559C550.52 993.141 550.52 998.949 554.102 1002.53L567.07 1015.5C570.648 1019.08 576.461 1019.08 580.039 1015.5L593.012 1002.53Z" stroke="#70FF00" stroke-width="18.739" stroke-miterlimit="10" stroke-linecap="round" stroke-linejoin="round"/>
<path d="M0.550781 1164.69C4.12891 1161.11 4.12891 1155.3 0.550781 1151.72L-12.4219 1138.75C-16 1135.17 -21.8086 1135.17 -25.3906 1138.75L-38.3594 1151.72C-41.9414 1155.3 -41.9414 1161.11 -38.3594 1164.69L-25.3906 1177.66C-21.8086 1181.24 -16 1181.24 -12.4219 1177.66L0.550781 1164.69Z" stroke="#70FF00" stroke-width="18.739" stroke-miterlimit="10" stroke-linecap="round" stroke-linejoin="round"/>
<path d="M1202.96 856.93C1199.39 860.512 1193.57 860.512 1189.99 856.93L1177.02 843.961C1173.45 840.379 1173.45 834.57 1177.02 830.988L1189.99 818.02C1193.57 814.441 1199.39 814.441 1202.96 818.02L1215.93 830.988C1219.52 834.57 1219.52 840.379 1215.93 843.961L1202.96 856.93Z" stroke="#70FF00" stroke-width="18.739" stroke-miterlimit="10" stroke-linecap="round" stroke-linejoin="round"/>
<path d="M1811.47 248.43C1807.89 252.012 1802.07 252.012 1798.5 248.43L1785.53 235.449C1781.95 231.879 1781.95 226.059 1785.53 222.48L1798.5 209.512C1802.07 205.941 1807.89 205.941 1811.47 209.512L1824.44 222.48C1828.02 226.059 1828.02 231.879 1824.44 235.449L1811.47 248.43Z" stroke="#70FF00" stroke-width="18.739" stroke-miterlimit="10" stroke-linecap="round" stroke-linejoin="round"/>
<path d="M106.309 1800.46C109.891 1796.88 115.699 1796.88 119.281 1800.46L132.25 1813.43C135.828 1817.01 135.828 1822.82 132.25 1826.4L119.281 1839.37C115.699 1842.95 109.891 1842.95 106.309 1839.37L93.3398 1826.4C89.7617 1822.82 89.7617 1817.01 93.3398 1813.43L106.309 1800.46Z" stroke="#70FF00" stroke-width="18.739" stroke-miterlimit="10" stroke-linecap="round" stroke-linejoin="round"/>
<path d="M596.121 1550.17C596.121 1545.11 600.23 1541 605.289 1541H623.641C628.699 1541 632.809 1545.11 632.809 1550.17V1568.52C632.809 1573.57 628.699 1577.68 623.641 1577.68H605.289C600.23 1577.68 596.121 1573.57 596.121 1568.52V1550.17Z" stroke="#70FF00" stroke-width="18.739" stroke-miterlimit="10" stroke-linecap="round" stroke-linejoin="round"/>
<path d="M183.391 1593.46C186.969 1589.88 192.781 1589.88 196.359 1593.46L209.328 1606.43C212.91 1610.01 212.91 1615.82 209.328 1619.4L196.359 1632.37C192.781 1635.95 186.969 1635.95 183.391 1632.37L170.422 1619.4C166.84 1615.82 166.84 1610.01 170.422 1606.43L183.391 1593.46Z" stroke="#70FF00" stroke-width="18.739" stroke-miterlimit="10" stroke-linecap="round" stroke-linejoin="round"/>
<path d="M1015.1 1044.79C1018.68 1041.21 1018.68 1035.4 1015.1 1031.82L1002.13 1018.85C998.559 1015.27 992.738 1015.27 989.16 1018.85L976.191 1031.82C972.609 1035.4 972.609 1041.21 976.191 1044.79L989.16 1057.76C992.738 1061.34 998.559 1061.34 1002.13 1057.76L1015.1 1044.79Z" stroke="#70FF00" stroke-width="18.739" stroke-miterlimit="10" stroke-linecap="round" stroke-linejoin="round"/>
<path d="M1150.02 1419.46C1153.6 1415.88 1159.41 1415.88 1162.99 1419.46L1175.96 1432.43C1179.54 1436.01 1179.54 1441.82 1175.96 1445.4L1162.99 1458.37C1159.41 1461.95 1153.6 1461.95 1150.02 1458.37L1137.05 1445.4C1133.47 1441.82 1133.47 1436.01 1137.05 1432.43L1150.02 1419.46Z" stroke="#70FF00" stroke-width="18.739" stroke-miterlimit="10" stroke-linecap="round" stroke-linejoin="round"/>
<path d="M1316.09 1086.32C1319.66 1082.74 1325.48 1082.74 1329.06 1086.32L1342.03 1099.29C1345.61 1102.87 1345.61 1108.68 1342.03 1112.26L1329.06 1125.23C1325.48 1128.8 1319.66 1128.8 1316.09 1125.23L1303.12 1112.26C1299.54 1108.68 1299.54 1102.87 1303.12 1099.29L1316.09 1086.32Z" stroke="#70FF00" stroke-width="18.739" stroke-miterlimit="10" stroke-linecap="round" stroke-linejoin="round"/>
<path d="M1462.1 802.531C1465.68 798.949 1471.49 798.949 1475.07 802.531L1488.04 815.5C1491.62 819.078 1491.62 824.891 1488.04 828.469L1475.07 841.441C1471.49 845.02 1465.68 845.02 1462.1 841.441L1449.13 828.469C1445.55 824.891 1445.55 819.078 1449.13 815.5L1462.1 802.531Z" stroke="#70FF00" stroke-width="18.739" stroke-miterlimit="10" stroke-linecap="round" stroke-linejoin="round"/>
<path d="M179.07 1178.69L-457.512 1815.27" stroke="#70FF00" stroke-width="18.739" stroke-miterlimit="10" stroke-linecap="round" stroke-linejoin="round"/>
<path d="M507.109 1783.47L8.89843 2281.68" stroke="#70FF00" stroke-width="18.739" stroke-miterlimit="10" stroke-linecap="round" stroke-linejoin="round"/>
<path d="M471.059 1215.3L-293.211 1979.57" stroke="#70FF00" stroke-width="18.739" stroke-miterlimit="10" stroke-linecap="round" stroke-linejoin="round"/>
<path d="M73.1484 1178.69L-510.469 1762.31" stroke="#70FF00" stroke-width="18.739" stroke-miterlimit="10" stroke-linecap="round" stroke-linejoin="round"/>
<path d="M1309.6 1118.74L77.7812 2350.56" stroke="#70FF00" stroke-width="18.739" stroke-miterlimit="10" stroke-linecap="round" stroke-linejoin="round"/>
<path d="M1156.36 413.23L586.52 983.078" stroke="#70FF00" stroke-width="18.739" stroke-miterlimit="10" stroke-linecap="round" stroke-linejoin="round"/>
<path d="M1209.45 824.5L1792.01 241.941" stroke="#70FF00" stroke-width="18.739" stroke-miterlimit="10" stroke-linecap="round" stroke-linejoin="round"/>
<path d="M99.8281 1832.89L-168.969 2101.68" stroke="#70FF00" stroke-width="18.739" stroke-miterlimit="10" stroke-linecap="round" stroke-linejoin="round"/>
<path d="M176.91 1625.88L-233.93 2036.72" stroke="#70FF00" stroke-width="18.739" stroke-miterlimit="10" stroke-linecap="round" stroke-linejoin="round"/>
<path d="M1008.62 1025.33L1061.56 972.391" stroke="#70FF00" stroke-width="18.739" stroke-miterlimit="10" stroke-linecap="round" stroke-linejoin="round"/>
<path d="M1061.56 972.391V660.66" stroke="#70FF00" stroke-width="18.739" stroke-miterlimit="10" stroke-linecap="round" stroke-linejoin="round"/>
</g>
<defs>
<clipPath id="clip0_126_1945">
<rect width="2100" height="2100" fill="white" transform="matrix(-1 0 0 1 2100 0)"/>
</clipPath>
</defs>
</svg>
