<?xml version="1.0" standalone="no"?><svg xmlns="http://www.w3.org/2000/svg" viewBox="0 0 1440 320"><path fill="#000000" fill-opacity="1" d="M0,256L6.2,218.7C12.3,181,25,107,37,80C49.2,53,62,75,74,117.3C86.2,160,98,224,111,245.3C123.1,267,135,245,148,218.7C160,192,172,160,185,144C196.9,128,209,128,222,106.7C233.8,85,246,43,258,58.7C270.8,75,283,149,295,186.7C307.7,224,320,224,332,218.7C344.6,213,357,203,369,202.7C381.5,203,394,213,406,213.3C418.5,213,431,203,443,186.7C455.4,171,468,149,480,144C492.3,139,505,149,517,165.3C529.2,181,542,203,554,186.7C566.2,171,578,117,591,80C603.1,43,615,21,628,64C640,107,652,213,665,224C676.9,235,689,149,702,138.7C713.8,128,726,192,738,186.7C750.8,181,763,107,775,85.3C787.7,64,800,96,812,144C824.6,192,837,256,849,261.3C861.5,267,874,213,886,186.7C898.5,160,911,160,923,160C935.4,160,948,160,960,181.3C972.3,203,985,245,997,245.3C1009.2,245,1022,203,1034,176C1046.2,149,1058,139,1071,165.3C1083.1,192,1095,256,1108,277.3C1120,299,1132,277,1145,266.7C1156.9,256,1169,256,1182,229.3C1193.8,203,1206,149,1218,112C1230.8,75,1243,53,1255,74.7C1267.7,96,1280,160,1292,165.3C1304.6,171,1317,117,1329,128C1341.5,139,1354,213,1366,218.7C1378.5,224,1391,160,1403,133.3C1415.4,107,1428,117,1434,122.7L1440,128L1440,320L1433.8,320C1427.7,320,1415,320,1403,320C1390.8,320,1378,320,1366,320C1353.8,320,1342,320,1329,320C1316.9,320,1305,320,1292,320C1280,320,1268,320,1255,320C1243.1,320,1231,320,1218,320C1206.2,320,1194,320,1182,320C1169.2,320,1157,320,1145,320C1132.3,320,1120,320,1108,320C1095.4,320,1083,320,1071,320C1058.5,320,1046,320,1034,320C1021.5,320,1009,320,997,320C984.6,320,972,320,960,320C947.7,320,935,320,923,320C910.8,320,898,320,886,320C873.8,320,862,320,849,320C836.9,320,825,320,812,320C800,320,788,320,775,320C763.1,320,751,320,738,320C726.2,320,714,320,702,320C689.2,320,677,320,665,320C652.3,320,640,320,628,320C615.4,320,603,320,591,320C578.5,320,566,320,554,320C541.5,320,529,320,517,320C504.6,320,492,320,480,320C467.7,320,455,320,443,320C430.8,320,418,320,406,320C393.8,320,382,320,369,320C356.9,320,345,320,332,320C320,320,308,320,295,320C283.1,320,271,320,258,320C246.2,320,234,320,222,320C209.2,320,197,320,185,320C172.3,320,160,320,148,320C135.4,320,123,320,111,320C98.5,320,86,320,74,320C61.5,320,49,320,37,320C24.6,320,12,320,6,320L0,320Z"></path></svg>