<svg width="575" height="162" viewBox="0 0 575 162" fill="none" xmlns="http://www.w3.org/2000/svg">
<path d="M1 60.5285C3.054 37.2025 5.108 13.8755 7.161 18.5085C9.215 23.1415 11.269 55.7335 13.323 60.5285C15.376 65.3235 17.43 42.3215 19.484 41.4285C21.538 40.5355 23.591 61.7505 25.645 60.5285C27.699 59.3065 29.753 35.6455 31.806 22.3285C33.86 9.01154 35.914 6.03854 37.968 5.13854C40.022 4.23854 42.075 5.41354 44.129 14.6885C46.183 23.9635 48.237 41.3405 50.29 50.9785C52.344 60.6165 54.398 62.5155 56.452 70.0785C58.505 77.6415 60.559 90.8695 62.613 79.6285C64.667 68.3875 66.72 32.6765 68.774 33.7885C70.828 34.9005 72.882 72.8335 74.935 75.8085C76.989 78.7835 79.043 46.7995 81.097 43.3385C83.151 39.8775 85.204 64.9395 87.258 56.7085C89.312 48.4775 91.366 6.95354 93.419 5.13854C95.473 3.32354 97.527 41.2185 99.581 60.5285C101.634 79.8385 103.688 80.5625 105.742 75.8085C107.796 71.0545 109.849 60.8225 111.903 47.1585C113.957 33.4945 116.011 16.3975 118.065 22.3285C120.118 28.2595 122.172 57.2165 124.226 66.2585C126.28 75.3005 128.333 64.4255 130.387 50.9785C132.441 37.5315 134.495 21.5125 136.548 24.2385C138.602 26.9645 140.656 48.4345 142.71 43.3385C144.763 38.2425 146.817 6.58154 148.871 5.13854C150.925 3.69554 152.978 32.4725 155.032 41.4285C157.086 50.3845 159.14 39.5215 161.194 28.0585C163.247 16.5955 165.301 4.53454 167.355 5.13854C169.409 5.74254 171.462 19.0135 173.516 24.2385C175.57 29.4635 177.624 26.6425 179.677 33.7885C181.731 40.9345 183.785 58.0485 185.839 71.9885C187.892 85.9285 189.946 96.6955 192 79.6285C194.054 62.5615 196.108 17.6605 198.161 5.13854C200.215 -7.38346 202.269 12.4745 204.323 12.7785C206.376 13.0825 208.43 -6.16946 210.484 8.95854C212.538 24.0865 214.591 73.5925 216.645 71.9885C218.699 70.3845 220.753 17.6715 222.806 18.5085C224.86 19.3455 226.914 73.7325 228.968 79.6285C231.022 85.5245 233.075 42.9285 235.129 31.8785C237.183 20.8285 239.237 41.3245 241.29 47.1585C243.344 52.9925 245.398 44.1645 247.452 43.3385C249.505 42.5125 251.559 49.6895 253.613 62.4385C255.667 75.1875 257.72 93.5105 259.774 79.6285C261.828 65.7465 263.882 19.6595 265.935 8.95854C267.989 -1.74246 270.043 22.9425 272.097 31.8785C274.151 40.8145 276.204 34.0025 278.258 33.7885C280.312 33.5745 282.366 39.9605 284.419 52.8885C286.473 65.8165 288.527 85.2875 290.581 81.5385C292.634 77.7895 294.688 50.8195 296.742 43.3385C298.796 35.8575 300.849 47.8655 302.903 52.8885C304.957 57.9115 307.011 55.9485 309.065 52.8885C311.118 49.8285 313.172 45.6725 315.226 47.1585C317.28 48.6445 319.333 55.7745 321.387 60.5285C323.441 65.2825 325.495 67.6625 327.548 70.0785C329.602 72.4945 331.656 74.9465 333.71 75.8085C335.763 76.6705 337.817 75.9415 339.871 70.0785C341.925 64.2155 343.978 53.2185 346.032 52.8885C348.086 52.5585 350.14 62.8955 352.194 66.2585C354.247 69.6215 356.301 66.0085 358.355 66.2585C360.409 66.5085 362.462 70.6195 364.516 71.9885C366.57 73.3575 368.624 71.9845 370.677 71.9885C372.731 71.9925 374.785 73.3735 376.839 70.0785C378.892 66.7835 380.946 58.8125 383 60.5285C385.054 62.2445 387.108 73.6485 389.161 75.8085C391.215 77.9685 393.269 70.8835 395.323 66.2585C397.376 61.6335 399.43 59.4685 401.484 52.8885C403.538 46.3085 405.591 35.3135 407.645 43.3385C409.699 51.3635 411.753 78.4105 413.806 75.8085C415.86 73.2065 417.914 40.9565 419.968 31.8785C422.022 22.8005 424.075 36.8945 426.129 50.9785C428.183 65.0625 430.237 79.1385 432.29 71.9885C434.344 64.8385 436.398 36.4645 438.452 18.5085C440.505 0.552544 442.559 -6.98546 444.613 12.7785C446.667 32.5425 448.72 79.6075 450.774 81.5385C452.828 83.4695 454.882 40.2675 456.935 24.2385C458.989 8.20954 461.043 19.3525 463.097 22.3285C465.151 25.3045 467.204 20.1115 469.258 22.3285C471.312 24.5455 473.366 34.1725 475.419 43.3385C477.473 52.5045 479.527 61.2095 481.581 62.4385C483.634 63.6675 485.688 57.4195 487.742 62.4385C489.796 67.4575 491.849 83.7445 493.903 71.9885C495.957 60.2325 498.011 20.4325 500.065 22.3285C502.118 24.2245 504.172 67.8155 506.226 66.2585C508.28 64.7015 510.333 17.9955 512.387 12.7785C514.441 7.56154 516.495 43.8325 518.548 60.5285C520.602 77.2245 522.656 74.3465 524.71 60.5285C526.763 46.7105 528.817 21.9515 530.871 28.0585C532.925 34.1655 534.978 71.1385 537.032 66.2585C539.086 61.3785 541.14 14.6465 543.194 8.95854C545.247 3.27054 547.301 38.6275 549.355 56.7085C551.409 74.7895 553.462 75.5945 555.516 71.9885C557.57 68.3825 559.624 60.3655 561.677 62.4385C563.731 64.5115 565.785 76.6735 567.839 75.8085C569.892 74.9435 571.946 61.0505 574 47.1585V161.759C571.946 161.759 569.892 161.759 567.839 161.759C565.785 161.759 563.731 161.759 561.677 161.759C559.624 161.759 557.57 161.759 555.516 161.759C553.462 161.759 551.409 161.759 549.355 161.759C547.301 161.759 545.247 161.759 543.194 161.759C541.14 161.759 539.086 161.759 537.032 161.759C534.978 161.759 532.925 161.759 530.871 161.759C528.817 161.759 526.763 161.759 524.71 161.759C522.656 161.759 520.602 161.759 518.548 161.759C516.495 161.759 514.441 161.759 512.387 161.759C510.333 161.759 508.28 161.759 506.226 161.759C504.172 161.759 502.118 161.759 500.065 161.759C498.011 161.759 495.957 161.759 493.903 161.759C491.849 161.759 489.796 161.759 487.742 161.759C485.688 161.759 483.634 161.759 481.581 161.759C479.527 161.759 477.473 161.759 475.419 161.759C473.366 161.759 471.312 161.759 469.258 161.759C467.204 161.759 465.151 161.759 463.097 161.759C461.043 161.759 458.989 161.759 456.935 161.759C454.882 161.759 452.828 161.759 450.774 161.759C448.72 161.759 446.667 161.759 444.613 161.759C442.559 161.759 440.505 161.759 438.452 161.759C436.398 161.759 434.344 161.759 432.29 161.759C430.237 161.759 428.183 161.759 426.129 161.759C424.075 161.759 422.022 161.759 419.968 161.759C417.914 161.759 415.86 161.759 413.806 161.759C411.753 161.759 409.699 161.759 407.645 161.759C405.591 161.759 403.538 161.759 401.484 161.759C399.43 161.759 397.376 161.759 395.323 161.759C393.269 161.759 391.215 161.759 389.161 161.759C387.108 161.759 385.054 161.759 383 161.759C380.946 161.759 378.892 161.759 376.839 161.759C374.785 161.759 372.731 161.759 370.677 161.759C368.624 161.759 366.57 161.759 364.516 161.759C362.462 161.759 360.409 161.759 358.355 161.759C356.301 161.759 354.247 161.759 352.194 161.759C350.14 161.759 348.086 161.759 346.032 161.759C343.978 161.759 341.925 161.759 339.871 161.759C337.817 161.759 335.763 161.759 333.71 161.759C331.656 161.759 329.602 161.759 327.548 161.759C325.495 161.759 323.441 161.759 321.387 161.759C319.333 161.759 317.28 161.759 315.226 161.759C313.172 161.759 311.118 161.759 309.065 161.759C307.011 161.759 304.957 161.759 302.903 161.759C300.849 161.759 298.796 161.759 296.742 161.759C294.688 161.759 292.634 161.759 290.581 161.759C288.527 161.759 286.473 161.759 284.419 161.759C282.366 161.759 280.312 161.759 278.258 161.759C276.204 161.759 274.151 161.759 272.097 161.759C270.043 161.759 267.989 161.759 265.935 161.759C263.882 161.759 261.828 161.759 259.774 161.759C257.72 161.759 255.667 161.759 253.613 161.759C251.559 161.759 249.505 161.759 247.452 161.759C245.398 161.759 243.344 161.759 241.29 161.759C239.237 161.759 237.183 161.759 235.129 161.759C233.075 161.759 231.022 161.759 228.968 161.759C226.914 161.759 224.86 161.759 222.806 161.759C220.753 161.759 218.699 161.759 216.645 161.759C214.591 161.759 212.538 161.759 210.484 161.759C208.43 161.759 206.376 161.759 204.323 161.759C202.269 161.759 200.215 161.759 198.161 161.759C196.108 161.759 194.054 161.759 192 161.759C189.946 161.759 187.892 161.759 185.839 161.759C183.785 161.759 181.731 161.759 179.677 161.759C177.624 161.759 175.57 161.759 173.516 161.759C171.462 161.759 169.409 161.759 167.355 161.759C165.301 161.759 163.247 161.759 161.194 161.759C159.14 161.759 157.086 161.759 155.032 161.759C152.978 161.759 150.925 161.759 148.871 161.759C146.817 161.759 144.763 161.759 142.71 161.759C140.656 161.759 138.602 161.759 136.548 161.759C134.495 161.759 132.441 161.759 130.387 161.759C128.333 161.759 126.28 161.759 124.226 161.759C122.172 161.759 120.118 161.759 118.065 161.759C116.011 161.759 113.957 161.759 111.903 161.759C109.849 161.759 107.796 161.759 105.742 161.759C103.688 161.759 101.634 161.759 99.581 161.759C97.527 161.759 95.473 161.759 93.419 161.759C91.366 161.759 89.312 161.759 87.258 161.759C85.204 161.759 83.151 161.759 81.097 161.759C79.043 161.759 76.989 161.759 74.935 161.759C72.882 161.759 70.828 161.759 68.774 161.759C66.72 161.759 64.667 161.759 62.613 161.759C60.559 161.759 58.505 161.759 56.452 161.759C54.398 161.759 52.344 161.759 50.29 161.759C48.237 161.759 46.183 161.759 44.129 161.759C42.075 161.759 40.022 161.759 37.968 161.759C35.914 161.759 33.86 161.759 31.806 161.759C29.753 161.759 27.699 161.759 25.645 161.759C23.591 161.759 21.538 161.759 19.484 161.759C17.43 161.759 15.376 161.759 13.323 161.759C11.269 161.759 9.215 161.759 7.161 161.759C5.108 161.759 3.054 161.759 1 161.759V60.5285Z" fill="black"/>
<path d="M1 60.5285C3.054 37.2025 5.108 13.8755 7.161 18.5085C9.215 23.1415 11.269 55.7335 13.323 60.5285C15.376 65.3235 17.43 42.3215 19.484 41.4285C21.538 40.5355 23.591 61.7505 25.645 60.5285C27.699 59.3065 29.753 35.6455 31.806 22.3285C33.86 9.01154 35.914 6.03854 37.968 5.13854C40.022 4.23854 42.075 5.41354 44.129 14.6885C46.183 23.9635 48.237 41.3405 50.29 50.9785C52.344 60.6165 54.398 62.5155 56.452 70.0785C58.505 77.6415 60.559 90.8695 62.613 79.6285C64.667 68.3875 66.72 32.6765 68.774 33.7885C70.828 34.9005 72.882 72.8335 74.935 75.8085C76.989 78.7835 79.043 46.7995 81.097 43.3385C83.151 39.8775 85.204 64.9395 87.258 56.7085C89.312 48.4775 91.366 6.95354 93.419 5.13854C95.473 3.32354 97.527 41.2185 99.581 60.5285C101.634 79.8385 103.688 80.5625 105.742 75.8085C107.796 71.0545 109.849 60.8225 111.903 47.1585C113.957 33.4945 116.011 16.3975 118.065 22.3285C120.118 28.2595 122.172 57.2165 124.226 66.2585C126.28 75.3005 128.333 64.4255 130.387 50.9785C132.441 37.5315 134.495 21.5125 136.548 24.2385C138.602 26.9645 140.656 48.4345 142.71 43.3385C144.763 38.2425 146.817 6.58154 148.871 5.13854C150.925 3.69554 152.978 32.4725 155.032 41.4285C157.086 50.3845 159.14 39.5215 161.194 28.0585C163.247 16.5955 165.301 4.53454 167.355 5.13854C169.409 5.74254 171.462 19.0135 173.516 24.2385C175.57 29.4635 177.624 26.6425 179.677 33.7885C181.731 40.9345 183.785 58.0485 185.839 71.9885C187.892 85.9285 189.946 96.6955 192 79.6285C194.054 62.5615 196.108 17.6605 198.161 5.13854C200.215 -7.38346 202.269 12.4745 204.323 12.7785C206.376 13.0825 208.43 -6.16946 210.484 8.95854C212.538 24.0865 214.591 73.5925 216.645 71.9885C218.699 70.3845 220.753 17.6715 222.806 18.5085C224.86 19.3455 226.914 73.7325 228.968 79.6285C231.022 85.5245 233.075 42.9285 235.129 31.8785C237.183 20.8285 239.237 41.3245 241.29 47.1585C243.344 52.9925 245.398 44.1645 247.452 43.3385C249.505 42.5125 251.559 49.6895 253.613 62.4385C255.667 75.1875 257.72 93.5105 259.774 79.6285C261.828 65.7465 263.882 19.6595 265.935 8.95854C267.989 -1.74246 270.043 22.9425 272.097 31.8785C274.151 40.8145 276.204 34.0025 278.258 33.7885C280.312 33.5745 282.366 39.9605 284.419 52.8885C286.473 65.8165 288.527 85.2875 290.581 81.5385C292.634 77.7895 294.688 50.8195 296.742 43.3385C298.796 35.8575 300.849 47.8655 302.903 52.8885C304.957 57.9115 307.011 55.9485 309.065 52.8885C311.118 49.8285 313.172 45.6725 315.226 47.1585C317.28 48.6445 319.333 55.7745 321.387 60.5285C323.441 65.2825 325.495 67.6625 327.548 70.0785C329.602 72.4945 331.656 74.9465 333.71 75.8085C335.763 76.6705 337.817 75.9415 339.871 70.0785C341.925 64.2155 343.978 53.2185 346.032 52.8885C348.086 52.5585 350.14 62.8955 352.194 66.2585C354.247 69.6215 356.301 66.0085 358.355 66.2585C360.409 66.5085 362.462 70.6195 364.516 71.9885C366.57 73.3575 368.624 71.9845 370.677 71.9885C372.731 71.9925 374.785 73.3735 376.839 70.0785C378.892 66.7835 380.946 58.8125 383 60.5285C385.054 62.2445 387.108 73.6485 389.161 75.8085C391.215 77.9685 393.269 70.8835 395.323 66.2585C397.376 61.6335 399.43 59.4685 401.484 52.8885C403.538 46.3085 405.591 35.3135 407.645 43.3385C409.699 51.3635 411.753 78.4105 413.806 75.8085C415.86 73.2065 417.914 40.9565 419.968 31.8785C422.022 22.8005 424.075 36.8945 426.129 50.9785C428.183 65.0625 430.237 79.1385 432.29 71.9885C434.344 64.8385 436.398 36.4645 438.452 18.5085C440.505 0.552544 442.559 -6.98546 444.613 12.7785C446.667 32.5425 448.72 79.6075 450.774 81.5385C452.828 83.4695 454.882 40.2675 456.935 24.2385C458.989 8.20954 461.043 19.3525 463.097 22.3285C465.151 25.3045 467.204 20.1115 469.258 22.3285C471.312 24.5455 473.366 34.1725 475.419 43.3385C477.473 52.5045 479.527 61.2095 481.581 62.4385C483.634 63.6675 485.688 57.4195 487.742 62.4385C489.796 67.4575 491.849 83.7445 493.903 71.9885C495.957 60.2325 498.011 20.4325 500.065 22.3285C502.118 24.2245 504.172 67.8155 506.226 66.2585C508.28 64.7015 510.333 17.9955 512.387 12.7785C514.441 7.56154 516.495 43.8325 518.548 60.5285C520.602 77.2245 522.656 74.3465 524.71 60.5285C526.763 46.7105 528.817 21.9515 530.871 28.0585C532.925 34.1655 534.978 71.1385 537.032 66.2585C539.086 61.3785 541.14 14.6465 543.194 8.95854C545.247 3.27054 547.301 38.6275 549.355 56.7085C551.409 74.7895 553.462 75.5945 555.516 71.9885C557.57 68.3825 559.624 60.3655 561.677 62.4385C563.731 64.5115 565.785 76.6735 567.839 75.8085C569.892 74.9435 571.946 61.0505 574 47.1585" stroke="#783CC8"/>
</svg>
