<svg width="100%" height="100%" id="svg" viewBox="0 0 1440 390" xmlns="http://www.w3.org/2000/svg" class="transition duration-300 ease-in-out delay-150"><path d="M 0,400 L 0,100 C 26.03233119558893,99.94109265994402 52.06466239117786,99.88218531988802 74,109 C 95.93533760882214,118.11781468011198 113.77368163087752,136.41235138039193 137,134 C 160.22631836912248,131.58764861960807 188.84061108531208,108.46840915854419 216,108 C 243.15938891468792,107.53159084145581 268.8638740278741,129.71401198543128 290,131 C 311.1361259721259,132.28598801456872 327.7038928031915,112.6755428997307 351,109 C 374.2961071968085,105.3244571002693 404.3205547593599,117.5838164156459 428,115 C 451.6794452406401,112.4161835843541 469.0138881593688,94.98919143768575 491,100 C 512.9861118406312,105.01080856231425 539.6238926031651,132.45941783361116 567,134 C 594.3761073968349,135.54058216638884 622.490541427971,111.17313722786965 649,92 C 675.509458572029,72.82686277213035 700.4139416849507,58.84803325491026 723,74 C 745.5860583150493,89.15196674508974 765.8536918322262,133.43472975248935 788,144 C 810.1463081677738,154.56527024751065 834.1712909861449,131.4130477351324 859,130 C 883.8287090138551,128.5869522648676 909.4611442231949,148.91307930698105 935,143 C 960.5388557768051,137.08692069301895 985.9841321210756,104.93463503694339 1013,96 C 1040.0158678789244,87.06536496305661 1068.6023272925022,101.34838054524536 1089,91 C 1109.3976727074978,80.65161945475464 1121.6065587089151,45.671842782075146 1143,56 C 1164.3934412910849,66.32815721792485 1194.9714378718372,121.96424832645408 1221,148 C 1247.0285621281628,174.03575167354592 1268.5076898037362,170.47116391210847 1294,148 C 1319.4923101962638,125.52883608789152 1348.997802913218,84.15109602511185 1374,73 C 1399.002197086782,61.84890397488814 1419.501098543391,80.92445198744407 1440,100 L 1440,400 L 0,400 Z" stroke="none" stroke-width="0" fill="#000000" fill-opacity="0.53" class="transition-all duration-300 ease-in-out delay-150 path-0"></path><path d="M 0,400 L 0,233 C 20.886505809170785,244.93758927103318 41.77301161834157,256.87517854206635 69,257 C 96.22698838165843,257.12482145793365 129.79445933580453,245.43687510276771 153,242 C 176.20554066419547,238.56312489723229 189.0491510384403,243.3773210468628 210,230 C 230.9508489615597,216.6226789531372 260.0089365104344,185.05384070978116 284,184 C 307.9910634895656,182.94615929021884 326.9151029198219,212.4073161140126 350,219 C 373.0848970801781,225.5926838859874 400.33065181027786,209.31689483416864 428,204 C 455.66934818972214,198.68310516583136 483.7622898390666,204.32510454931287 505,227 C 526.2377101609334,249.67489545068713 540.6201888334556,289.38268696857995 566,277 C 591.3798111665444,264.61731303142005 627.7569548271115,200.14414757636726 652,190 C 676.2430451728885,179.85585242363274 688.3519918580982,224.04072272595099 708,236 C 727.6480081419018,247.95927727404901 754.8350777404954,227.6929615198288 784,229 C 813.1649222595046,230.3070384801712 844.3076971799204,253.18743119473388 870,247 C 895.6923028200796,240.81256880526612 915.9341335398226,205.55731370123567 937,192 C 958.0658664601774,178.44268629876433 979.9557686607893,186.58331400032338 1003,186 C 1026.0442313392107,185.41668599967662 1050.2427918170201,176.1094302974707 1078,189 C 1105.7572081829799,201.8905697025293 1137.0730640711301,236.97896480979375 1163,251 C 1188.9269359288699,265.02103519020625 1209.46495189846,257.97471046335426 1230,250 C 1250.53504810154,242.02528953664574 1271.06712833503,233.1221933367892 1295,232 C 1318.93287166497,230.8778066632108 1346.26653476142,237.5365161894888 1371,239 C 1395.73346523858,240.4634838105112 1417.86673261929,236.7317419052556 1440,233 L 1440,400 L 0,400 Z" stroke="none" stroke-width="0" fill="#000000" fill-opacity="1" class="transition-all duration-300 ease-in-out delay-150 path-1"></path></svg>